M48
; DRILL file {KiCad 7.0.1} date Sat Apr 15 09:39:32 2023
; FORMAT={-:-/ absolute / metric / decimal}
; #@! TF.CreationDate,2023-04-15T09:39:32+07:00
; #@! TF.GenerationSoftware,Kicad,Pcbnew,7.0.1
; #@! TF.FileFunction,Plated,1,2,PTH
FMAT,2
METRIC
; #@! TA.AperFunction,Plated,PTH,ViaDrill
T1C0.200
; #@! TA.AperFunction,Plated,PTH,ViaDrill
T2C0.300
; #@! TA.AperFunction,Plated,PTH,ViaDrill
T3C0.400
; #@! TA.AperFunction,Plated,PTH,ComponentDrill
T4C0.500
; #@! TA.AperFunction,Plated,PTH,ComponentDrill
T5C0.762
; #@! TA.AperFunction,Plated,PTH,ComponentDrill
T6C0.800
; #@! TA.AperFunction,Plated,PTH,ComponentDrill
T7C1.000
; #@! TA.AperFunction,Plated,PTH,ComponentDrill
T8C1.100
; #@! TA.AperFunction,Plated,PTH,ComponentDrill
T9C1.200
; #@! TA.AperFunction,Plated,PTH,ComponentDrill
T10C1.500
; #@! TA.AperFunction,Plated,PTH,ComponentDrill
T11C3.200
%
G90
G05
T1
X108.84Y-62.0
X108.84Y-65.6
X109.43Y-48.76
X109.925Y-132.925
X110.45Y-137.75
X111.325Y-133.35
X111.748Y-111.568
X111.788Y-110.97
X113.75Y-117.0
X113.774Y-114.5
X116.2Y-113.3
X117.05Y-109.8
X117.055Y-82.25
X117.078Y-97.4
X117.54Y-112.0
X117.725Y-113.415
X117.85Y-82.25
X117.85Y-98.1
X117.85Y-109.8
X119.75Y-135.854
X119.75Y-137.154
X119.85Y-112.5
X120.0Y-110.5
X120.159Y-64.5
X121.6Y-135.8
X121.6Y-136.504
X121.6Y-137.154
X123.5Y-100.3
X127.5Y-111.0
X127.5Y-115.5
X128.0Y-111.0
X128.0Y-115.5
X128.5Y-111.0
X128.5Y-115.5
X129.0Y-111.0
X129.0Y-115.5
X129.5Y-111.0
X129.5Y-115.5
X130.0Y-111.0
X130.0Y-115.5
X130.5Y-111.0
X130.5Y-115.5
X131.0Y-111.0
X131.0Y-111.5
X131.0Y-112.0
X131.0Y-112.5
X131.0Y-113.0
X131.0Y-113.5
X131.0Y-114.0
X131.0Y-114.5
X131.0Y-115.0
X131.0Y-115.5
X143.75Y-97.6
X143.9Y-123.2
X145.12Y-108.4
X145.45Y-127.78
X145.84Y-80.365
X145.84Y-83.815
X145.84Y-87.315
X146.2Y-95.45
X146.2Y-102.5
X146.8Y-94.2
X146.8Y-107.6
X147.374Y-106.365
X147.4Y-92.9
X147.975Y-105.095
X148.0Y-91.65
X148.75Y-123.2
X148.875Y-103.825
X149.4Y-105.095
X149.94Y-106.365
X150.65Y-123.2
X162.552Y-127.087
X164.25Y-126.125
X164.25Y-136.15
X164.25Y-142.4
T2
X98.8Y-118.5
X98.8Y-123.9
X99.0Y-48.7
X99.0Y-58.7
X99.0Y-63.7
X99.0Y-69.133
X99.0Y-78.7
X99.0Y-84.133
X99.0Y-88.7
X99.0Y-93.7
X99.0Y-98.7
X99.0Y-103.7
X99.0Y-108.7
X99.0Y-113.7
X99.0Y-143.4
X101.0Y-127.0
X101.0Y-128.0
X101.0Y-129.0
X102.0Y-127.0
X102.0Y-128.0
X102.0Y-129.0
X103.0Y-127.0
X103.0Y-128.0
X103.0Y-129.0
X104.0Y-69.133
X104.0Y-84.133
X104.0Y-48.7
X104.0Y-58.7
X104.0Y-63.7
X104.0Y-78.7
X104.0Y-88.7
X104.0Y-93.7
X104.0Y-103.7
X104.0Y-138.7
X104.0Y-143.4
X104.0Y-98.1
X104.0Y-128.267
X104.039Y-123.941
X104.2Y-118.5
X106.1Y-113.125
X106.125Y-108.35
X108.05Y-92.0
X108.05Y-101.5
X109.0Y-93.7
X109.0Y-98.1
X109.0Y-103.7
X109.0Y-108.7
X109.0Y-118.7
X109.0Y-123.7
X109.0Y-128.267
X109.0Y-138.7
X109.0Y-143.4
X109.35Y-52.0
X109.35Y-53.0
X109.35Y-54.0
X109.4Y-114.3
X110.6Y-105.4
X110.6Y-108.4
X110.75Y-73.6
X111.2Y-59.6
X112.2Y-105.4
X112.5Y-109.0
X112.5Y-117.55
X113.9Y-123.5
X114.0Y-54.133
X114.0Y-58.7
X114.0Y-63.7
X114.0Y-69.133
X114.0Y-72.8
X114.0Y-79.1
X114.0Y-118.7
X114.0Y-143.4
X114.5Y-84.133
X114.5Y-88.6
X114.5Y-113.8
X114.6Y-93.7
X114.75Y-109.99
X115.8Y-103.0
X117.3Y-73.525
X119.0Y-84.133
X119.0Y-79.1
X119.0Y-133.7
X119.0Y-138.7
X119.0Y-143.4
X119.1Y-99.1
X119.5Y-66.1
X119.5Y-67.1
X119.5Y-68.0
X119.8Y-111.59
X120.05Y-61.3
X120.1Y-99.1
X120.5Y-66.1
X120.5Y-67.1
X120.5Y-68.0
X120.7Y-82.0
X120.7Y-83.0
X120.7Y-84.0
X120.7Y-89.0
X120.7Y-90.7
X120.7Y-92.5
X120.7Y-94.0
X120.8Y-121.1
X121.1Y-99.1
X121.5Y-66.1
X121.5Y-67.1
X121.5Y-68.0
X121.7Y-82.0
X121.7Y-83.0
X121.7Y-84.0
X122.48Y-109.91
X122.5Y-66.1
X122.5Y-67.1
X122.5Y-68.0
X122.7Y-82.0
X122.7Y-83.0
X122.7Y-84.0
X123.5Y-66.1
X123.5Y-67.1
X123.5Y-68.0
X123.7Y-82.0
X123.7Y-83.0
X123.7Y-84.0
X123.9Y-61.3
X124.0Y-79.1
X124.0Y-88.7
X124.0Y-93.7
X124.0Y-118.7
X124.0Y-138.7
X124.0Y-143.4
X124.6Y-73.525
X124.7Y-82.0
X124.7Y-83.0
X124.7Y-84.0
X124.8Y-128.7
X124.8Y-131.8
X125.7Y-82.0
X125.7Y-83.0
X125.7Y-84.0
X126.0Y-67.45
X126.1Y-99.5
X128.5Y-133.7
X129.0Y-48.7
X129.0Y-54.133
X129.0Y-74.5
X129.0Y-79.1
X129.0Y-84.133
X129.0Y-88.7
X129.0Y-93.7
X129.0Y-98.7
X129.0Y-138.7
X129.0Y-143.4
X129.5Y-129.7
X130.0Y-92.4
X130.0Y-93.4
X130.0Y-94.4
X131.0Y-92.4
X131.0Y-93.4
X131.0Y-94.4
X132.0Y-92.4
X132.0Y-93.4
X132.0Y-94.4
X133.36Y-110.75
X133.36Y-120.81
X133.36Y-121.5
X133.39Y-111.475
X133.4Y-123.2
X134.0Y-69.133
X134.0Y-48.7
X134.0Y-74.5
X134.0Y-79.1
X134.0Y-138.7
X134.0Y-143.4
X135.0Y-99.1
X135.0Y-100.1
X135.0Y-101.1
X136.0Y-99.1
X136.0Y-100.1
X136.0Y-101.1
X136.9Y-85.8
X137.0Y-99.1
X137.0Y-100.1
X137.0Y-101.1
X139.0Y-48.7
X139.0Y-48.7
X139.0Y-69.133
X139.0Y-74.5
X139.0Y-103.7
X139.0Y-103.7
X139.0Y-108.7
X139.0Y-108.7
X139.0Y-133.7
X139.0Y-133.7
X139.0Y-138.7
X139.0Y-138.7
X139.0Y-143.4
X139.0Y-143.4
X139.3Y-113.3
X140.8Y-79.0
X140.8Y-80.0
X140.8Y-81.0
X141.8Y-79.0
X141.8Y-80.0
X141.8Y-81.0
X142.8Y-79.0
X142.8Y-80.0
X142.8Y-81.0
X143.4Y-99.525
X143.4Y-113.0
X143.4Y-114.0
X143.7Y-88.7
X144.0Y-54.133
X144.0Y-69.133
X144.0Y-84.133
X144.0Y-48.7
X144.0Y-58.7
X144.0Y-63.7
X144.0Y-118.7
X144.0Y-133.7
X144.0Y-138.7
X144.0Y-143.4
X147.5Y-65.9
X148.4Y-72.55
X149.0Y-48.7
X149.0Y-58.7
X149.0Y-73.7
X149.0Y-108.7
X149.0Y-113.267
X149.0Y-118.7
X149.0Y-133.7
X149.0Y-138.7
X149.0Y-143.4
X149.3Y-83.1
X149.4Y-65.9
X153.3Y-84.0
X154.0Y-78.7
X154.0Y-88.7
X154.0Y-118.7
X154.0Y-133.7
X154.0Y-138.7
X154.0Y-143.4
X157.49Y-103.31
X157.49Y-106.66
X157.49Y-110.11
X157.49Y-113.66
X159.0Y-84.133
X159.0Y-78.7
X159.0Y-88.7
X159.0Y-118.7
X164.0Y-78.7
X164.0Y-118.7
X165.46Y-138.93
X169.0Y-78.7
X169.0Y-118.7
X169.0Y-132.9
X169.0Y-138.7
X169.0Y-143.4
X169.1Y-84.2
X169.9Y-137.8
X169.9Y-138.8
X169.9Y-139.8
X170.9Y-137.8
X170.9Y-138.8
X170.9Y-139.8
X171.9Y-137.8
X171.9Y-138.8
X171.9Y-139.8
X174.0Y-78.7
X174.0Y-88.7
X174.0Y-118.7
X174.0Y-132.9
X174.0Y-138.7
X174.1Y-128.6
X174.2Y-84.2
X178.5Y-128.7
X179.0Y-78.7
X179.0Y-88.7
X179.0Y-93.7
X179.0Y-108.7
X179.0Y-118.7
X179.0Y-133.7
X179.0Y-138.7
X183.7Y-123.9
X183.8Y-118.5
X184.0Y-78.7
X184.0Y-84.133
X184.0Y-108.7
X184.0Y-113.7
X184.0Y-128.7
X184.0Y-133.7
X184.0Y-138.7
X185.1Y-88.7
X185.1Y-93.7
X185.1Y-98.7
X189.0Y-84.133
X189.0Y-78.7
X189.0Y-88.7
X189.0Y-93.7
X189.0Y-103.7
X189.0Y-108.7
X189.0Y-143.4
X189.0Y-98.267
X189.0Y-113.267
X189.2Y-118.5
X189.2Y-123.9
T3
X124.4Y-111.375
X181.2Y-140.05
X183.2Y-140.05
T4
X99.1Y-72.75
X99.1Y-121.25
X99.803Y-71.053
X99.803Y-74.447
X99.803Y-119.553
X99.803Y-122.947
X101.5Y-70.35
X101.5Y-75.15
X101.5Y-118.85
X101.5Y-123.65
X103.197Y-71.053
X103.197Y-74.447
X103.197Y-119.553
X103.197Y-122.947
X103.9Y-72.75
X103.9Y-121.25
X184.1Y-72.75
X184.1Y-121.25
X184.803Y-71.053
X184.803Y-74.447
X184.803Y-119.553
X184.803Y-122.947
X186.5Y-70.35
X186.5Y-75.15
X186.5Y-118.85
X186.5Y-123.65
X188.197Y-71.053
X188.197Y-74.447
X188.197Y-119.553
X188.197Y-122.947
X188.9Y-72.75
X188.9Y-121.25
T5
X100.51Y-57.93
X100.51Y-60.47
X100.51Y-63.01
X100.51Y-65.55
X101.25Y-88.04
X165.282Y-83.36
X165.282Y-98.6
X167.822Y-83.36
X167.822Y-98.6
X169.32Y-103.4
X169.32Y-113.56
X170.362Y-83.36
X170.362Y-98.6
X171.86Y-103.4
X171.86Y-113.56
X172.903Y-83.36
X172.903Y-98.6
X174.4Y-103.4
X174.4Y-113.56
X175.442Y-83.36
X175.442Y-98.6
X176.94Y-103.4
X176.94Y-113.56
X177.982Y-83.36
X177.982Y-98.6
X179.48Y-103.4
X179.48Y-113.56
X182.02Y-103.4
X182.02Y-113.56
T6
X100.7Y-103.7
X102.7Y-103.7
X121.6Y-129.4
X121.6Y-131.4
X121.6Y-133.4
X129.2Y-117.3
X129.2Y-119.3
X129.2Y-121.3
X148.44Y-50.34
X148.44Y-52.88
X148.44Y-55.42
X156.06Y-50.34
X156.06Y-52.88
X156.06Y-55.42
T7
X100.51Y-50.31
X100.51Y-52.85
X100.51Y-55.39
X101.25Y-80.42
X101.25Y-82.96
X101.25Y-85.5
X101.25Y-93.71
X101.25Y-96.25
X101.25Y-98.79
X109.85Y-77.88
X109.85Y-80.42
X109.85Y-82.96
X109.85Y-85.5
X109.85Y-88.04
X129.9Y-96.6
X137.5Y-96.6
X147.188Y-128.132
X147.188Y-142.632
X149.688Y-128.132
X152.188Y-128.132
X152.188Y-142.632
X168.15Y-120.0
X170.69Y-120.0
X173.23Y-120.0
X175.77Y-120.0
X178.31Y-120.0
X180.85Y-120.0
T8
X169.305Y-50.25
X169.305Y-52.79
X169.305Y-55.33
T9
X184.75Y-50.25
X184.75Y-55.25
X184.75Y-60.5
X184.75Y-65.5
T11
X101.5Y-72.75
X101.5Y-121.25
X186.5Y-72.75
X186.5Y-121.25
T4
X100.125Y-106.43G85X99.725Y-106.43
G05
X100.125Y-115.07G85X99.725Y-115.07
G05
X104.355Y-106.43G85X103.855Y-106.43
G05
X104.355Y-115.07G85X103.855Y-115.07
G05
T6
X129.45Y-56.95G85X129.45Y-59.15
G05
X135.35Y-55.25G85X133.15Y-55.25
G05
X135.55Y-61.05G85X132.95Y-61.05
G05
T10
X144.088Y-134.982G85X144.088Y-136.282
G05
X155.288Y-134.982G85X155.288Y-136.282
G05
T0
M30
