%TF.GenerationSoftware,KiCad,Pcbnew,7.0.1*%
%TF.CreationDate,2023-04-14T22:18:01+07:00*%
%TF.ProjectId,DO_AN_DKTD,444f5f41-4e5f-4444-9b54-442e6b696361,rev?*%
%TF.SameCoordinates,Original*%
%TF.FileFunction,Legend,Bot*%
%TF.FilePolarity,Positive*%
%FSLAX46Y46*%
G04 Gerber Fmt 4.6, Leading zero omitted, Abs format (unit mm)*
G04 Created by KiCad (PCBNEW 7.0.1) date 2023-04-14 22:18:01*
%MOMM*%
%LPD*%
G01*
G04 APERTURE LIST*
%ADD10C,0.375000*%
G04 APERTURE END LIST*
D10*
X180142857Y-57740714D02*
X179928571Y-57812142D01*
X179928571Y-57812142D02*
X179857142Y-57883571D01*
X179857142Y-57883571D02*
X179785714Y-58026428D01*
X179785714Y-58026428D02*
X179785714Y-58240714D01*
X179785714Y-58240714D02*
X179857142Y-58383571D01*
X179857142Y-58383571D02*
X179928571Y-58455000D01*
X179928571Y-58455000D02*
X180071428Y-58526428D01*
X180071428Y-58526428D02*
X180642857Y-58526428D01*
X180642857Y-58526428D02*
X180642857Y-57026428D01*
X180642857Y-57026428D02*
X180142857Y-57026428D01*
X180142857Y-57026428D02*
X180000000Y-57097857D01*
X180000000Y-57097857D02*
X179928571Y-57169285D01*
X179928571Y-57169285D02*
X179857142Y-57312142D01*
X179857142Y-57312142D02*
X179857142Y-57455000D01*
X179857142Y-57455000D02*
X179928571Y-57597857D01*
X179928571Y-57597857D02*
X180000000Y-57669285D01*
X180000000Y-57669285D02*
X180142857Y-57740714D01*
X180142857Y-57740714D02*
X180642857Y-57740714D01*
X178857142Y-57026428D02*
X178571428Y-57026428D01*
X178571428Y-57026428D02*
X178428571Y-57097857D01*
X178428571Y-57097857D02*
X178285714Y-57240714D01*
X178285714Y-57240714D02*
X178214285Y-57526428D01*
X178214285Y-57526428D02*
X178214285Y-58026428D01*
X178214285Y-58026428D02*
X178285714Y-58312142D01*
X178285714Y-58312142D02*
X178428571Y-58455000D01*
X178428571Y-58455000D02*
X178571428Y-58526428D01*
X178571428Y-58526428D02*
X178857142Y-58526428D01*
X178857142Y-58526428D02*
X179000000Y-58455000D01*
X179000000Y-58455000D02*
X179142857Y-58312142D01*
X179142857Y-58312142D02*
X179214285Y-58026428D01*
X179214285Y-58026428D02*
X179214285Y-57526428D01*
X179214285Y-57526428D02*
X179142857Y-57240714D01*
X179142857Y-57240714D02*
X179000000Y-57097857D01*
X179000000Y-57097857D02*
X178857142Y-57026428D01*
X176714285Y-58526428D02*
X177214285Y-57812142D01*
X177571428Y-58526428D02*
X177571428Y-57026428D01*
X177571428Y-57026428D02*
X176999999Y-57026428D01*
X176999999Y-57026428D02*
X176857142Y-57097857D01*
X176857142Y-57097857D02*
X176785713Y-57169285D01*
X176785713Y-57169285D02*
X176714285Y-57312142D01*
X176714285Y-57312142D02*
X176714285Y-57526428D01*
X176714285Y-57526428D02*
X176785713Y-57669285D01*
X176785713Y-57669285D02*
X176857142Y-57740714D01*
X176857142Y-57740714D02*
X176999999Y-57812142D01*
X176999999Y-57812142D02*
X177571428Y-57812142D01*
X176142856Y-58097857D02*
X175428571Y-58097857D01*
X176285713Y-58526428D02*
X175785713Y-57026428D01*
X175785713Y-57026428D02*
X175285713Y-58526428D01*
X174785714Y-58526428D02*
X174785714Y-57026428D01*
X174785714Y-57026428D02*
X174428571Y-57026428D01*
X174428571Y-57026428D02*
X174214285Y-57097857D01*
X174214285Y-57097857D02*
X174071428Y-57240714D01*
X174071428Y-57240714D02*
X173999999Y-57383571D01*
X173999999Y-57383571D02*
X173928571Y-57669285D01*
X173928571Y-57669285D02*
X173928571Y-57883571D01*
X173928571Y-57883571D02*
X173999999Y-58169285D01*
X173999999Y-58169285D02*
X174071428Y-58312142D01*
X174071428Y-58312142D02*
X174214285Y-58455000D01*
X174214285Y-58455000D02*
X174428571Y-58526428D01*
X174428571Y-58526428D02*
X174785714Y-58526428D01*
X172357142Y-57026428D02*
X171857142Y-58526428D01*
X171857142Y-58526428D02*
X171357142Y-57026428D01*
X170571428Y-57026428D02*
X170428571Y-57026428D01*
X170428571Y-57026428D02*
X170285714Y-57097857D01*
X170285714Y-57097857D02*
X170214286Y-57169285D01*
X170214286Y-57169285D02*
X170142857Y-57312142D01*
X170142857Y-57312142D02*
X170071428Y-57597857D01*
X170071428Y-57597857D02*
X170071428Y-57955000D01*
X170071428Y-57955000D02*
X170142857Y-58240714D01*
X170142857Y-58240714D02*
X170214286Y-58383571D01*
X170214286Y-58383571D02*
X170285714Y-58455000D01*
X170285714Y-58455000D02*
X170428571Y-58526428D01*
X170428571Y-58526428D02*
X170571428Y-58526428D01*
X170571428Y-58526428D02*
X170714286Y-58455000D01*
X170714286Y-58455000D02*
X170785714Y-58383571D01*
X170785714Y-58383571D02*
X170857143Y-58240714D01*
X170857143Y-58240714D02*
X170928571Y-57955000D01*
X170928571Y-57955000D02*
X170928571Y-57597857D01*
X170928571Y-57597857D02*
X170857143Y-57312142D01*
X170857143Y-57312142D02*
X170785714Y-57169285D01*
X170785714Y-57169285D02*
X170714286Y-57097857D01*
X170714286Y-57097857D02*
X170571428Y-57026428D01*
X169428572Y-58383571D02*
X169357143Y-58455000D01*
X169357143Y-58455000D02*
X169428572Y-58526428D01*
X169428572Y-58526428D02*
X169500000Y-58455000D01*
X169500000Y-58455000D02*
X169428572Y-58383571D01*
X169428572Y-58383571D02*
X169428572Y-58526428D01*
X167928571Y-58526428D02*
X168785714Y-58526428D01*
X168357143Y-58526428D02*
X168357143Y-57026428D01*
X168357143Y-57026428D02*
X168500000Y-57240714D01*
X168500000Y-57240714D02*
X168642857Y-57383571D01*
X168642857Y-57383571D02*
X168785714Y-57455000D01*
X180642857Y-60956428D02*
X180642857Y-59456428D01*
X180642857Y-59456428D02*
X180285714Y-59456428D01*
X180285714Y-59456428D02*
X180071428Y-59527857D01*
X180071428Y-59527857D02*
X179928571Y-59670714D01*
X179928571Y-59670714D02*
X179857142Y-59813571D01*
X179857142Y-59813571D02*
X179785714Y-60099285D01*
X179785714Y-60099285D02*
X179785714Y-60313571D01*
X179785714Y-60313571D02*
X179857142Y-60599285D01*
X179857142Y-60599285D02*
X179928571Y-60742142D01*
X179928571Y-60742142D02*
X180071428Y-60885000D01*
X180071428Y-60885000D02*
X180285714Y-60956428D01*
X180285714Y-60956428D02*
X180642857Y-60956428D01*
X178571428Y-60885000D02*
X178714285Y-60956428D01*
X178714285Y-60956428D02*
X179000000Y-60956428D01*
X179000000Y-60956428D02*
X179142857Y-60885000D01*
X179142857Y-60885000D02*
X179214285Y-60742142D01*
X179214285Y-60742142D02*
X179214285Y-60170714D01*
X179214285Y-60170714D02*
X179142857Y-60027857D01*
X179142857Y-60027857D02*
X179000000Y-59956428D01*
X179000000Y-59956428D02*
X178714285Y-59956428D01*
X178714285Y-59956428D02*
X178571428Y-60027857D01*
X178571428Y-60027857D02*
X178500000Y-60170714D01*
X178500000Y-60170714D02*
X178500000Y-60313571D01*
X178500000Y-60313571D02*
X179214285Y-60456428D01*
X177928571Y-60885000D02*
X177785714Y-60956428D01*
X177785714Y-60956428D02*
X177500000Y-60956428D01*
X177500000Y-60956428D02*
X177357143Y-60885000D01*
X177357143Y-60885000D02*
X177285714Y-60742142D01*
X177285714Y-60742142D02*
X177285714Y-60670714D01*
X177285714Y-60670714D02*
X177357143Y-60527857D01*
X177357143Y-60527857D02*
X177500000Y-60456428D01*
X177500000Y-60456428D02*
X177714286Y-60456428D01*
X177714286Y-60456428D02*
X177857143Y-60385000D01*
X177857143Y-60385000D02*
X177928571Y-60242142D01*
X177928571Y-60242142D02*
X177928571Y-60170714D01*
X177928571Y-60170714D02*
X177857143Y-60027857D01*
X177857143Y-60027857D02*
X177714286Y-59956428D01*
X177714286Y-59956428D02*
X177500000Y-59956428D01*
X177500000Y-59956428D02*
X177357143Y-60027857D01*
X176642857Y-60956428D02*
X176642857Y-59956428D01*
X176642857Y-59456428D02*
X176714285Y-59527857D01*
X176714285Y-59527857D02*
X176642857Y-59599285D01*
X176642857Y-59599285D02*
X176571428Y-59527857D01*
X176571428Y-59527857D02*
X176642857Y-59456428D01*
X176642857Y-59456428D02*
X176642857Y-59599285D01*
X175285714Y-59956428D02*
X175285714Y-61170714D01*
X175285714Y-61170714D02*
X175357142Y-61313571D01*
X175357142Y-61313571D02*
X175428571Y-61385000D01*
X175428571Y-61385000D02*
X175571428Y-61456428D01*
X175571428Y-61456428D02*
X175785714Y-61456428D01*
X175785714Y-61456428D02*
X175928571Y-61385000D01*
X175285714Y-60885000D02*
X175428571Y-60956428D01*
X175428571Y-60956428D02*
X175714285Y-60956428D01*
X175714285Y-60956428D02*
X175857142Y-60885000D01*
X175857142Y-60885000D02*
X175928571Y-60813571D01*
X175928571Y-60813571D02*
X175999999Y-60670714D01*
X175999999Y-60670714D02*
X175999999Y-60242142D01*
X175999999Y-60242142D02*
X175928571Y-60099285D01*
X175928571Y-60099285D02*
X175857142Y-60027857D01*
X175857142Y-60027857D02*
X175714285Y-59956428D01*
X175714285Y-59956428D02*
X175428571Y-59956428D01*
X175428571Y-59956428D02*
X175285714Y-60027857D01*
X174571428Y-59956428D02*
X174571428Y-60956428D01*
X174571428Y-60099285D02*
X174499999Y-60027857D01*
X174499999Y-60027857D02*
X174357142Y-59956428D01*
X174357142Y-59956428D02*
X174142856Y-59956428D01*
X174142856Y-59956428D02*
X173999999Y-60027857D01*
X173999999Y-60027857D02*
X173928571Y-60170714D01*
X173928571Y-60170714D02*
X173928571Y-60956428D01*
X172642856Y-60885000D02*
X172785713Y-60956428D01*
X172785713Y-60956428D02*
X173071428Y-60956428D01*
X173071428Y-60956428D02*
X173214285Y-60885000D01*
X173214285Y-60885000D02*
X173285713Y-60742142D01*
X173285713Y-60742142D02*
X173285713Y-60170714D01*
X173285713Y-60170714D02*
X173214285Y-60027857D01*
X173214285Y-60027857D02*
X173071428Y-59956428D01*
X173071428Y-59956428D02*
X172785713Y-59956428D01*
X172785713Y-59956428D02*
X172642856Y-60027857D01*
X172642856Y-60027857D02*
X172571428Y-60170714D01*
X172571428Y-60170714D02*
X172571428Y-60313571D01*
X172571428Y-60313571D02*
X173285713Y-60456428D01*
X171285714Y-60956428D02*
X171285714Y-59456428D01*
X171285714Y-60885000D02*
X171428571Y-60956428D01*
X171428571Y-60956428D02*
X171714285Y-60956428D01*
X171714285Y-60956428D02*
X171857142Y-60885000D01*
X171857142Y-60885000D02*
X171928571Y-60813571D01*
X171928571Y-60813571D02*
X171999999Y-60670714D01*
X171999999Y-60670714D02*
X171999999Y-60242142D01*
X171999999Y-60242142D02*
X171928571Y-60099285D01*
X171928571Y-60099285D02*
X171857142Y-60027857D01*
X171857142Y-60027857D02*
X171714285Y-59956428D01*
X171714285Y-59956428D02*
X171428571Y-59956428D01*
X171428571Y-59956428D02*
X171285714Y-60027857D01*
X168928571Y-60170714D02*
X168714285Y-60242142D01*
X168714285Y-60242142D02*
X168642856Y-60313571D01*
X168642856Y-60313571D02*
X168571428Y-60456428D01*
X168571428Y-60456428D02*
X168571428Y-60670714D01*
X168571428Y-60670714D02*
X168642856Y-60813571D01*
X168642856Y-60813571D02*
X168714285Y-60885000D01*
X168714285Y-60885000D02*
X168857142Y-60956428D01*
X168857142Y-60956428D02*
X169428571Y-60956428D01*
X169428571Y-60956428D02*
X169428571Y-59456428D01*
X169428571Y-59456428D02*
X168928571Y-59456428D01*
X168928571Y-59456428D02*
X168785714Y-59527857D01*
X168785714Y-59527857D02*
X168714285Y-59599285D01*
X168714285Y-59599285D02*
X168642856Y-59742142D01*
X168642856Y-59742142D02*
X168642856Y-59885000D01*
X168642856Y-59885000D02*
X168714285Y-60027857D01*
X168714285Y-60027857D02*
X168785714Y-60099285D01*
X168785714Y-60099285D02*
X168928571Y-60170714D01*
X168928571Y-60170714D02*
X169428571Y-60170714D01*
X168071428Y-59956428D02*
X167714285Y-60956428D01*
X167357142Y-59956428D02*
X167714285Y-60956428D01*
X167714285Y-60956428D02*
X167857142Y-61313571D01*
X167857142Y-61313571D02*
X167928571Y-61385000D01*
X167928571Y-61385000D02*
X168071428Y-61456428D01*
X180642857Y-63386428D02*
X180642857Y-61886428D01*
X180642857Y-61886428D02*
X179785714Y-63386428D01*
X179785714Y-63386428D02*
X179785714Y-61886428D01*
X178428571Y-62386428D02*
X178428571Y-63600714D01*
X178428571Y-63600714D02*
X178499999Y-63743571D01*
X178499999Y-63743571D02*
X178571428Y-63815000D01*
X178571428Y-63815000D02*
X178714285Y-63886428D01*
X178714285Y-63886428D02*
X178928571Y-63886428D01*
X178928571Y-63886428D02*
X179071428Y-63815000D01*
X178428571Y-63315000D02*
X178571428Y-63386428D01*
X178571428Y-63386428D02*
X178857142Y-63386428D01*
X178857142Y-63386428D02*
X178999999Y-63315000D01*
X178999999Y-63315000D02*
X179071428Y-63243571D01*
X179071428Y-63243571D02*
X179142856Y-63100714D01*
X179142856Y-63100714D02*
X179142856Y-62672142D01*
X179142856Y-62672142D02*
X179071428Y-62529285D01*
X179071428Y-62529285D02*
X178999999Y-62457857D01*
X178999999Y-62457857D02*
X178857142Y-62386428D01*
X178857142Y-62386428D02*
X178571428Y-62386428D01*
X178571428Y-62386428D02*
X178428571Y-62457857D01*
X177071428Y-62386428D02*
X177071428Y-63386428D01*
X177714285Y-62386428D02*
X177714285Y-63172142D01*
X177714285Y-63172142D02*
X177642856Y-63315000D01*
X177642856Y-63315000D02*
X177499999Y-63386428D01*
X177499999Y-63386428D02*
X177285713Y-63386428D01*
X177285713Y-63386428D02*
X177142856Y-63315000D01*
X177142856Y-63315000D02*
X177071428Y-63243571D01*
X176499999Y-62386428D02*
X176142856Y-63386428D01*
X175785713Y-62386428D02*
X176142856Y-63386428D01*
X176142856Y-63386428D02*
X176285713Y-63743571D01*
X176285713Y-63743571D02*
X176357142Y-63815000D01*
X176357142Y-63815000D02*
X176499999Y-63886428D01*
X174642856Y-63315000D02*
X174785713Y-63386428D01*
X174785713Y-63386428D02*
X175071428Y-63386428D01*
X175071428Y-63386428D02*
X175214285Y-63315000D01*
X175214285Y-63315000D02*
X175285713Y-63172142D01*
X175285713Y-63172142D02*
X175285713Y-62600714D01*
X175285713Y-62600714D02*
X175214285Y-62457857D01*
X175214285Y-62457857D02*
X175071428Y-62386428D01*
X175071428Y-62386428D02*
X174785713Y-62386428D01*
X174785713Y-62386428D02*
X174642856Y-62457857D01*
X174642856Y-62457857D02*
X174571428Y-62600714D01*
X174571428Y-62600714D02*
X174571428Y-62743571D01*
X174571428Y-62743571D02*
X175285713Y-62886428D01*
X173928571Y-62386428D02*
X173928571Y-63386428D01*
X173928571Y-62529285D02*
X173857142Y-62457857D01*
X173857142Y-62457857D02*
X173714285Y-62386428D01*
X173714285Y-62386428D02*
X173499999Y-62386428D01*
X173499999Y-62386428D02*
X173357142Y-62457857D01*
X173357142Y-62457857D02*
X173285714Y-62600714D01*
X173285714Y-62600714D02*
X173285714Y-63386428D01*
X171642856Y-61886428D02*
X170785714Y-61886428D01*
X171214285Y-63386428D02*
X171214285Y-61886428D01*
X170285714Y-63386428D02*
X170285714Y-62386428D01*
X170285714Y-62672142D02*
X170214285Y-62529285D01*
X170214285Y-62529285D02*
X170142857Y-62457857D01*
X170142857Y-62457857D02*
X169999999Y-62386428D01*
X169999999Y-62386428D02*
X169857142Y-62386428D01*
X168714286Y-62386428D02*
X168714286Y-63386428D01*
X169357143Y-62386428D02*
X169357143Y-63172142D01*
X169357143Y-63172142D02*
X169285714Y-63315000D01*
X169285714Y-63315000D02*
X169142857Y-63386428D01*
X169142857Y-63386428D02*
X168928571Y-63386428D01*
X168928571Y-63386428D02*
X168785714Y-63315000D01*
X168785714Y-63315000D02*
X168714286Y-63243571D01*
X168000000Y-62386428D02*
X168000000Y-63386428D01*
X168000000Y-62529285D02*
X167928571Y-62457857D01*
X167928571Y-62457857D02*
X167785714Y-62386428D01*
X167785714Y-62386428D02*
X167571428Y-62386428D01*
X167571428Y-62386428D02*
X167428571Y-62457857D01*
X167428571Y-62457857D02*
X167357143Y-62600714D01*
X167357143Y-62600714D02*
X167357143Y-63386428D01*
X166000000Y-62386428D02*
X166000000Y-63600714D01*
X166000000Y-63600714D02*
X166071428Y-63743571D01*
X166071428Y-63743571D02*
X166142857Y-63815000D01*
X166142857Y-63815000D02*
X166285714Y-63886428D01*
X166285714Y-63886428D02*
X166500000Y-63886428D01*
X166500000Y-63886428D02*
X166642857Y-63815000D01*
X166000000Y-63315000D02*
X166142857Y-63386428D01*
X166142857Y-63386428D02*
X166428571Y-63386428D01*
X166428571Y-63386428D02*
X166571428Y-63315000D01*
X166571428Y-63315000D02*
X166642857Y-63243571D01*
X166642857Y-63243571D02*
X166714285Y-63100714D01*
X166714285Y-63100714D02*
X166714285Y-62672142D01*
X166714285Y-62672142D02*
X166642857Y-62529285D01*
X166642857Y-62529285D02*
X166571428Y-62457857D01*
X166571428Y-62457857D02*
X166428571Y-62386428D01*
X166428571Y-62386428D02*
X166142857Y-62386428D01*
X166142857Y-62386428D02*
X166000000Y-62457857D01*
X164357142Y-61886428D02*
X163500000Y-61886428D01*
X163928571Y-63386428D02*
X163928571Y-61886428D01*
X163000000Y-63386428D02*
X163000000Y-61886428D01*
X162357143Y-63386428D02*
X162357143Y-62600714D01*
X162357143Y-62600714D02*
X162428571Y-62457857D01*
X162428571Y-62457857D02*
X162571428Y-62386428D01*
X162571428Y-62386428D02*
X162785714Y-62386428D01*
X162785714Y-62386428D02*
X162928571Y-62457857D01*
X162928571Y-62457857D02*
X163000000Y-62529285D01*
X161000000Y-63386428D02*
X161000000Y-62600714D01*
X161000000Y-62600714D02*
X161071428Y-62457857D01*
X161071428Y-62457857D02*
X161214285Y-62386428D01*
X161214285Y-62386428D02*
X161500000Y-62386428D01*
X161500000Y-62386428D02*
X161642857Y-62457857D01*
X161000000Y-63315000D02*
X161142857Y-63386428D01*
X161142857Y-63386428D02*
X161500000Y-63386428D01*
X161500000Y-63386428D02*
X161642857Y-63315000D01*
X161642857Y-63315000D02*
X161714285Y-63172142D01*
X161714285Y-63172142D02*
X161714285Y-63029285D01*
X161714285Y-63029285D02*
X161642857Y-62886428D01*
X161642857Y-62886428D02*
X161500000Y-62815000D01*
X161500000Y-62815000D02*
X161142857Y-62815000D01*
X161142857Y-62815000D02*
X161000000Y-62743571D01*
X160071428Y-63386428D02*
X160214285Y-63315000D01*
X160214285Y-63315000D02*
X160285714Y-63243571D01*
X160285714Y-63243571D02*
X160357142Y-63100714D01*
X160357142Y-63100714D02*
X160357142Y-62672142D01*
X160357142Y-62672142D02*
X160285714Y-62529285D01*
X160285714Y-62529285D02*
X160214285Y-62457857D01*
X160214285Y-62457857D02*
X160071428Y-62386428D01*
X160071428Y-62386428D02*
X159857142Y-62386428D01*
X159857142Y-62386428D02*
X159714285Y-62457857D01*
X159714285Y-62457857D02*
X159642857Y-62529285D01*
X159642857Y-62529285D02*
X159571428Y-62672142D01*
X159571428Y-62672142D02*
X159571428Y-63100714D01*
X159571428Y-63100714D02*
X159642857Y-63243571D01*
X159642857Y-63243571D02*
X159714285Y-63315000D01*
X159714285Y-63315000D02*
X159857142Y-63386428D01*
X159857142Y-63386428D02*
X160071428Y-63386428D01*
X180714285Y-64459285D02*
X180642857Y-64387857D01*
X180642857Y-64387857D02*
X180500000Y-64316428D01*
X180500000Y-64316428D02*
X180142857Y-64316428D01*
X180142857Y-64316428D02*
X180000000Y-64387857D01*
X180000000Y-64387857D02*
X179928571Y-64459285D01*
X179928571Y-64459285D02*
X179857142Y-64602142D01*
X179857142Y-64602142D02*
X179857142Y-64745000D01*
X179857142Y-64745000D02*
X179928571Y-64959285D01*
X179928571Y-64959285D02*
X180785714Y-65816428D01*
X180785714Y-65816428D02*
X179857142Y-65816428D01*
X178928571Y-64316428D02*
X178785714Y-64316428D01*
X178785714Y-64316428D02*
X178642857Y-64387857D01*
X178642857Y-64387857D02*
X178571429Y-64459285D01*
X178571429Y-64459285D02*
X178500000Y-64602142D01*
X178500000Y-64602142D02*
X178428571Y-64887857D01*
X178428571Y-64887857D02*
X178428571Y-65245000D01*
X178428571Y-65245000D02*
X178500000Y-65530714D01*
X178500000Y-65530714D02*
X178571429Y-65673571D01*
X178571429Y-65673571D02*
X178642857Y-65745000D01*
X178642857Y-65745000D02*
X178785714Y-65816428D01*
X178785714Y-65816428D02*
X178928571Y-65816428D01*
X178928571Y-65816428D02*
X179071429Y-65745000D01*
X179071429Y-65745000D02*
X179142857Y-65673571D01*
X179142857Y-65673571D02*
X179214286Y-65530714D01*
X179214286Y-65530714D02*
X179285714Y-65245000D01*
X179285714Y-65245000D02*
X179285714Y-64887857D01*
X179285714Y-64887857D02*
X179214286Y-64602142D01*
X179214286Y-64602142D02*
X179142857Y-64459285D01*
X179142857Y-64459285D02*
X179071429Y-64387857D01*
X179071429Y-64387857D02*
X178928571Y-64316428D01*
X177000000Y-65816428D02*
X177857143Y-65816428D01*
X177428572Y-65816428D02*
X177428572Y-64316428D01*
X177428572Y-64316428D02*
X177571429Y-64530714D01*
X177571429Y-64530714D02*
X177714286Y-64673571D01*
X177714286Y-64673571D02*
X177857143Y-64745000D01*
X175642858Y-64316428D02*
X176357144Y-64316428D01*
X176357144Y-64316428D02*
X176428572Y-65030714D01*
X176428572Y-65030714D02*
X176357144Y-64959285D01*
X176357144Y-64959285D02*
X176214287Y-64887857D01*
X176214287Y-64887857D02*
X175857144Y-64887857D01*
X175857144Y-64887857D02*
X175714287Y-64959285D01*
X175714287Y-64959285D02*
X175642858Y-65030714D01*
X175642858Y-65030714D02*
X175571429Y-65173571D01*
X175571429Y-65173571D02*
X175571429Y-65530714D01*
X175571429Y-65530714D02*
X175642858Y-65673571D01*
X175642858Y-65673571D02*
X175714287Y-65745000D01*
X175714287Y-65745000D02*
X175857144Y-65816428D01*
X175857144Y-65816428D02*
X176214287Y-65816428D01*
X176214287Y-65816428D02*
X176357144Y-65745000D01*
X176357144Y-65745000D02*
X176428572Y-65673571D01*
X174142858Y-65816428D02*
X175000001Y-65816428D01*
X174571430Y-65816428D02*
X174571430Y-64316428D01*
X174571430Y-64316428D02*
X174714287Y-64530714D01*
X174714287Y-64530714D02*
X174857144Y-64673571D01*
X174857144Y-64673571D02*
X175000001Y-64745000D01*
X172785716Y-64316428D02*
X173500002Y-64316428D01*
X173500002Y-64316428D02*
X173571430Y-65030714D01*
X173571430Y-65030714D02*
X173500002Y-64959285D01*
X173500002Y-64959285D02*
X173357145Y-64887857D01*
X173357145Y-64887857D02*
X173000002Y-64887857D01*
X173000002Y-64887857D02*
X172857145Y-64959285D01*
X172857145Y-64959285D02*
X172785716Y-65030714D01*
X172785716Y-65030714D02*
X172714287Y-65173571D01*
X172714287Y-65173571D02*
X172714287Y-65530714D01*
X172714287Y-65530714D02*
X172785716Y-65673571D01*
X172785716Y-65673571D02*
X172857145Y-65745000D01*
X172857145Y-65745000D02*
X173000002Y-65816428D01*
X173000002Y-65816428D02*
X173357145Y-65816428D01*
X173357145Y-65816428D02*
X173500002Y-65745000D01*
X173500002Y-65745000D02*
X173571430Y-65673571D01*
X171428574Y-64316428D02*
X171714288Y-64316428D01*
X171714288Y-64316428D02*
X171857145Y-64387857D01*
X171857145Y-64387857D02*
X171928574Y-64459285D01*
X171928574Y-64459285D02*
X172071431Y-64673571D01*
X172071431Y-64673571D02*
X172142859Y-64959285D01*
X172142859Y-64959285D02*
X172142859Y-65530714D01*
X172142859Y-65530714D02*
X172071431Y-65673571D01*
X172071431Y-65673571D02*
X172000002Y-65745000D01*
X172000002Y-65745000D02*
X171857145Y-65816428D01*
X171857145Y-65816428D02*
X171571431Y-65816428D01*
X171571431Y-65816428D02*
X171428574Y-65745000D01*
X171428574Y-65745000D02*
X171357145Y-65673571D01*
X171357145Y-65673571D02*
X171285716Y-65530714D01*
X171285716Y-65530714D02*
X171285716Y-65173571D01*
X171285716Y-65173571D02*
X171357145Y-65030714D01*
X171357145Y-65030714D02*
X171428574Y-64959285D01*
X171428574Y-64959285D02*
X171571431Y-64887857D01*
X171571431Y-64887857D02*
X171857145Y-64887857D01*
X171857145Y-64887857D02*
X172000002Y-64959285D01*
X172000002Y-64959285D02*
X172071431Y-65030714D01*
X172071431Y-65030714D02*
X172142859Y-65173571D01*
X170000003Y-64816428D02*
X170000003Y-65816428D01*
X170357145Y-64245000D02*
X170714288Y-65316428D01*
X170714288Y-65316428D02*
X169785717Y-65316428D01*
%TO.C,G\u002A\u002A\u002A*%
G36*
X166433525Y-64476669D02*
G01*
X166437556Y-64477576D01*
X166452729Y-64482356D01*
X166468700Y-64490536D01*
X166487503Y-64503968D01*
X166511175Y-64524504D01*
X166541750Y-64553994D01*
X166581265Y-64594290D01*
X166631756Y-64647244D01*
X166695257Y-64714707D01*
X166703232Y-64723192D01*
X166769789Y-64793230D01*
X166847284Y-64873660D01*
X166931323Y-64959985D01*
X167017512Y-65047708D01*
X167101454Y-65132335D01*
X167178756Y-65209367D01*
X167222364Y-65252741D01*
X167286007Y-65316891D01*
X167344626Y-65376965D01*
X167396042Y-65430677D01*
X167438075Y-65475741D01*
X167468544Y-65509871D01*
X167485269Y-65530781D01*
X167485968Y-65531826D01*
X167503011Y-65559940D01*
X167527502Y-65603611D01*
X167557201Y-65658688D01*
X167589867Y-65721017D01*
X167623259Y-65786448D01*
X167648352Y-65835493D01*
X167710395Y-65948721D01*
X167774777Y-66053695D01*
X167847197Y-66159924D01*
X167988276Y-66359883D01*
X168179637Y-66637693D01*
X168355950Y-66901932D01*
X168517065Y-67152351D01*
X168662829Y-67388702D01*
X168793089Y-67610735D01*
X168907693Y-67818203D01*
X169006490Y-68010857D01*
X169089327Y-68188448D01*
X169099210Y-68210661D01*
X169132522Y-68283288D01*
X169172248Y-68367423D01*
X169215505Y-68457063D01*
X169259404Y-68546204D01*
X169301060Y-68628843D01*
X169311311Y-68648941D01*
X169355161Y-68736523D01*
X169388439Y-68806145D01*
X169411619Y-68858867D01*
X169425170Y-68895751D01*
X169429566Y-68917858D01*
X169429526Y-68921879D01*
X169422337Y-68978705D01*
X169404660Y-69030131D01*
X169379219Y-69068030D01*
X169377751Y-69069478D01*
X169355966Y-69087128D01*
X169339524Y-69094400D01*
X169338222Y-69094354D01*
X169315193Y-69083090D01*
X169287315Y-69054183D01*
X169256829Y-69010801D01*
X169225979Y-68956108D01*
X169197008Y-68893271D01*
X169184839Y-68864219D01*
X169126870Y-68734573D01*
X169064274Y-68609446D01*
X168994267Y-68483787D01*
X168914068Y-68352548D01*
X168820895Y-68210680D01*
X168728888Y-68075237D01*
X168608047Y-67899418D01*
X168486566Y-67724879D01*
X168365715Y-67553361D01*
X168246761Y-67386604D01*
X168130971Y-67226349D01*
X168019615Y-67074335D01*
X167913960Y-66932305D01*
X167815275Y-66801998D01*
X167724826Y-66685154D01*
X167643883Y-66583515D01*
X167573713Y-66498820D01*
X167563413Y-66486779D01*
X167522593Y-66439767D01*
X167470729Y-66380818D01*
X167410821Y-66313303D01*
X167345869Y-66240595D01*
X167278871Y-66166066D01*
X167212827Y-66093087D01*
X167167306Y-66042905D01*
X167064056Y-65928380D01*
X166974386Y-65827658D01*
X166897024Y-65739125D01*
X166830697Y-65661168D01*
X166774134Y-65592173D01*
X166726062Y-65530527D01*
X166685208Y-65474617D01*
X166650301Y-65422829D01*
X166620068Y-65373550D01*
X166593236Y-65325166D01*
X166568534Y-65276063D01*
X166523598Y-65182617D01*
X166469955Y-65070752D01*
X166424769Y-64976001D01*
X166387306Y-64896705D01*
X166356828Y-64831205D01*
X166332598Y-64777840D01*
X166313881Y-64734950D01*
X166299940Y-64700877D01*
X166290037Y-64673959D01*
X166283438Y-64652538D01*
X166279405Y-64634954D01*
X166277201Y-64619547D01*
X166275326Y-64575667D01*
X166283637Y-64529557D01*
X166305593Y-64498278D01*
X166342280Y-64479496D01*
X166371818Y-64473319D01*
X166433525Y-64476669D01*
G37*
G36*
X169289449Y-69596945D02*
G01*
X169280099Y-69611329D01*
X169259132Y-69635937D01*
X169229307Y-69667381D01*
X169217192Y-69679334D01*
X169129185Y-69749696D01*
X169032757Y-69799520D01*
X168927666Y-69828939D01*
X168902152Y-69833686D01*
X168867783Y-69842477D01*
X168840005Y-69855204D01*
X168811318Y-69875729D01*
X168774220Y-69907912D01*
X168728475Y-69945290D01*
X168658041Y-69992977D01*
X168585387Y-70032743D01*
X168518517Y-70059832D01*
X168508078Y-70062821D01*
X168469597Y-70071985D01*
X168411829Y-70084045D01*
X168334633Y-70099023D01*
X168237868Y-70116943D01*
X168121392Y-70137829D01*
X167985064Y-70161703D01*
X167828743Y-70188590D01*
X167652288Y-70218513D01*
X167455558Y-70251494D01*
X167238411Y-70287558D01*
X167000707Y-70326728D01*
X166742303Y-70369027D01*
X166463059Y-70414479D01*
X166162834Y-70463107D01*
X165841486Y-70514934D01*
X165498873Y-70569984D01*
X165134856Y-70628281D01*
X164749293Y-70689847D01*
X164342041Y-70754706D01*
X163912961Y-70822882D01*
X163760256Y-70847122D01*
X163449810Y-70896429D01*
X163160194Y-70942471D01*
X162890644Y-70985373D01*
X162640394Y-71025262D01*
X162408682Y-71062264D01*
X162194740Y-71096506D01*
X161997806Y-71128113D01*
X161817114Y-71157212D01*
X161651900Y-71183930D01*
X161501400Y-71208392D01*
X161364847Y-71230726D01*
X161241479Y-71251056D01*
X161130530Y-71269510D01*
X161031235Y-71286214D01*
X160942831Y-71301294D01*
X160864552Y-71314876D01*
X160795634Y-71327087D01*
X160735311Y-71338053D01*
X160682821Y-71347901D01*
X160637397Y-71356755D01*
X160598275Y-71364744D01*
X160564691Y-71371993D01*
X160535879Y-71378629D01*
X160511076Y-71384777D01*
X160501921Y-71387169D01*
X160436555Y-71405662D01*
X160366200Y-71427589D01*
X160296149Y-71451118D01*
X160231694Y-71474417D01*
X160178126Y-71495653D01*
X160140739Y-71512994D01*
X160123250Y-71521913D01*
X160108762Y-71526682D01*
X160108897Y-71519836D01*
X160124049Y-71500038D01*
X160154613Y-71465949D01*
X160155090Y-71465433D01*
X160201769Y-71420231D01*
X160257259Y-71376694D01*
X160322660Y-71334430D01*
X160399073Y-71293051D01*
X160487599Y-71252167D01*
X160589338Y-71211387D01*
X160705391Y-71170324D01*
X160836857Y-71128585D01*
X160984838Y-71085783D01*
X161150435Y-71041527D01*
X161334747Y-70995428D01*
X161538875Y-70947097D01*
X161763920Y-70896142D01*
X161811385Y-70885700D01*
X161895245Y-70867541D01*
X161996736Y-70845817D01*
X162113432Y-70821032D01*
X162242906Y-70793689D01*
X162382734Y-70764292D01*
X162530488Y-70733346D01*
X162683745Y-70701353D01*
X162840076Y-70668819D01*
X162997057Y-70636247D01*
X163152262Y-70604140D01*
X163303264Y-70573003D01*
X163447639Y-70543339D01*
X163582959Y-70515653D01*
X163706800Y-70490448D01*
X163816735Y-70468228D01*
X163910338Y-70449497D01*
X163985183Y-70434759D01*
X164260181Y-70382157D01*
X164614000Y-70316748D01*
X164986514Y-70250200D01*
X165375822Y-70182820D01*
X165780022Y-70114912D01*
X166197214Y-70046783D01*
X166625495Y-69978738D01*
X167062964Y-69911083D01*
X167507719Y-69844122D01*
X167957859Y-69778162D01*
X168411481Y-69713508D01*
X168866685Y-69650466D01*
X168872461Y-69649678D01*
X168965230Y-69637070D01*
X169051087Y-69625487D01*
X169127514Y-69615263D01*
X169191995Y-69606731D01*
X169242012Y-69600224D01*
X169275049Y-69596076D01*
X169288586Y-69594619D01*
X169289449Y-69596945D01*
G37*
G36*
X164336924Y-65067938D02*
G01*
X164362934Y-65076242D01*
X164400148Y-65090439D01*
X164450039Y-65111147D01*
X164514081Y-65138987D01*
X164593744Y-65174575D01*
X164690502Y-65218533D01*
X164805829Y-65271478D01*
X164824780Y-65280210D01*
X164938679Y-65332663D01*
X165060105Y-65388542D01*
X165184440Y-65445726D01*
X165307067Y-65502091D01*
X165423367Y-65555515D01*
X165528723Y-65603875D01*
X165618517Y-65645048D01*
X165674188Y-65670636D01*
X165812281Y-65734760D01*
X165949052Y-65799153D01*
X166082128Y-65862651D01*
X166209134Y-65924095D01*
X166327698Y-65982320D01*
X166435447Y-66036167D01*
X166530007Y-66084473D01*
X166609005Y-66126076D01*
X166670068Y-66159814D01*
X166703593Y-66179201D01*
X166835292Y-66258783D01*
X166964323Y-66342651D01*
X167093532Y-66432913D01*
X167225763Y-66531677D01*
X167363861Y-66641050D01*
X167510670Y-66763141D01*
X167669034Y-66900056D01*
X167729559Y-66954148D01*
X167819625Y-67039591D01*
X167893842Y-67118020D01*
X167954215Y-67192262D01*
X168002750Y-67265145D01*
X168041455Y-67339499D01*
X168072335Y-67418151D01*
X168097396Y-67503930D01*
X168104307Y-67533774D01*
X168116908Y-67633536D01*
X168110581Y-67722166D01*
X168085337Y-67799389D01*
X168066034Y-67832921D01*
X168018579Y-67893069D01*
X167957117Y-67952610D01*
X167886293Y-68007257D01*
X167810752Y-68052726D01*
X167764550Y-68075594D01*
X167712160Y-68098635D01*
X167657688Y-68118976D01*
X167598628Y-68137181D01*
X167532469Y-68153811D01*
X167456703Y-68169431D01*
X167368822Y-68184604D01*
X167266318Y-68199892D01*
X167146682Y-68215859D01*
X167007406Y-68233067D01*
X166981482Y-68236220D01*
X166880317Y-68249045D01*
X166765076Y-68264311D01*
X166641851Y-68281178D01*
X166516733Y-68298802D01*
X166395813Y-68316341D01*
X166285183Y-68332953D01*
X166274523Y-68334586D01*
X166104814Y-68360009D01*
X165955702Y-68381160D01*
X165826068Y-68398171D01*
X165714794Y-68411174D01*
X165620761Y-68420299D01*
X165542850Y-68425678D01*
X165479944Y-68427442D01*
X165471893Y-68427464D01*
X165433508Y-68428237D01*
X165406501Y-68429897D01*
X165396295Y-68432138D01*
X165396789Y-68433855D01*
X165403659Y-68451143D01*
X165417359Y-68483699D01*
X165436276Y-68527724D01*
X165458800Y-68579425D01*
X165521808Y-68724557D01*
X165579643Y-68860621D01*
X165631313Y-68985212D01*
X165676343Y-69097100D01*
X165714254Y-69195050D01*
X165744570Y-69277833D01*
X165766815Y-69344214D01*
X165780512Y-69392963D01*
X165785183Y-69422847D01*
X165784994Y-69432977D01*
X165782241Y-69461325D01*
X165777253Y-69476572D01*
X165774736Y-69478104D01*
X165754879Y-69481484D01*
X165724804Y-69481203D01*
X165680284Y-69477901D01*
X165543762Y-69261140D01*
X165539346Y-69254124D01*
X165496072Y-69185064D01*
X165444580Y-69102438D01*
X165387871Y-69011089D01*
X165328947Y-68915860D01*
X165270810Y-68821593D01*
X165216461Y-68733131D01*
X165186913Y-68684973D01*
X165142787Y-68613239D01*
X165103081Y-68548913D01*
X165069229Y-68494307D01*
X165042667Y-68451733D01*
X165024829Y-68423503D01*
X165017148Y-68411928D01*
X165015129Y-68410895D01*
X164995461Y-68406259D01*
X164957471Y-68399557D01*
X164903952Y-68391213D01*
X164837696Y-68381650D01*
X164761496Y-68371291D01*
X164678145Y-68360560D01*
X164347677Y-68319148D01*
X164310875Y-68278973D01*
X164285602Y-68245793D01*
X164274787Y-68210628D01*
X164284911Y-68176435D01*
X164316115Y-68139430D01*
X164358158Y-68099521D01*
X164587690Y-68088405D01*
X164817222Y-68077289D01*
X164776946Y-68010593D01*
X164774320Y-68006269D01*
X164755628Y-67976006D01*
X164727343Y-67930717D01*
X164691388Y-67873458D01*
X164649686Y-67807288D01*
X164604159Y-67735263D01*
X164556729Y-67660440D01*
X164553383Y-67655166D01*
X164503596Y-67576176D01*
X164453980Y-67496560D01*
X164406903Y-67420185D01*
X164364736Y-67350914D01*
X164329847Y-67292613D01*
X164304606Y-67249149D01*
X164302689Y-67245755D01*
X164277110Y-67200491D01*
X164243001Y-67140176D01*
X164202579Y-67068727D01*
X164158060Y-66990060D01*
X164111661Y-66908093D01*
X164065596Y-66826742D01*
X164019698Y-66745357D01*
X163939987Y-66601860D01*
X163869956Y-66472274D01*
X163808099Y-66353433D01*
X163752908Y-66242168D01*
X163702878Y-66135314D01*
X163656501Y-66029703D01*
X163612272Y-65922167D01*
X163568684Y-65809540D01*
X163524230Y-65688655D01*
X163508810Y-65645110D01*
X163486427Y-65579909D01*
X163463375Y-65510863D01*
X163440780Y-65441524D01*
X163419768Y-65375446D01*
X163401465Y-65316182D01*
X163386998Y-65267286D01*
X163377491Y-65232312D01*
X163374072Y-65214812D01*
X163374671Y-65212215D01*
X163384588Y-65195137D01*
X163402838Y-65171314D01*
X163403507Y-65170526D01*
X163439449Y-65143683D01*
X163481769Y-65137274D01*
X163526955Y-65151850D01*
X163533213Y-65156656D01*
X163554654Y-65180136D01*
X163585989Y-65220108D01*
X163626096Y-65274856D01*
X163673854Y-65342665D01*
X163728138Y-65421820D01*
X163787826Y-65510603D01*
X163851796Y-65607301D01*
X163918925Y-65710197D01*
X163988091Y-65817576D01*
X164058169Y-65927722D01*
X164128038Y-66038920D01*
X164196576Y-66149454D01*
X164262658Y-66257608D01*
X164325164Y-66361666D01*
X164382969Y-66459914D01*
X164395421Y-66481531D01*
X164431848Y-66546192D01*
X164474214Y-66622953D01*
X164519541Y-66706350D01*
X164564852Y-66790922D01*
X164607168Y-66871206D01*
X164614142Y-66884575D01*
X164652355Y-66958013D01*
X164695441Y-67041065D01*
X164742320Y-67131632D01*
X164791916Y-67227619D01*
X164843151Y-67326928D01*
X164894948Y-67427462D01*
X164946228Y-67527124D01*
X164995914Y-67623819D01*
X165042929Y-67715447D01*
X165086194Y-67799913D01*
X165124632Y-67875120D01*
X165157166Y-67938971D01*
X165182717Y-67989369D01*
X165200209Y-68024217D01*
X165208563Y-68041418D01*
X165222317Y-68072242D01*
X165317639Y-68066291D01*
X165318051Y-68066265D01*
X165359880Y-68063803D01*
X165418449Y-68060555D01*
X165488373Y-68056810D01*
X165564264Y-68052857D01*
X165640739Y-68048983D01*
X165714880Y-68045060D01*
X165849437Y-68037000D01*
X165991684Y-68027459D01*
X166136636Y-68016825D01*
X166279312Y-68005485D01*
X166414730Y-67993825D01*
X166537906Y-67982232D01*
X166643858Y-67971093D01*
X166686958Y-67966104D01*
X166864060Y-67942372D01*
X167019675Y-67915741D01*
X167154276Y-67886004D01*
X167268333Y-67852954D01*
X167362318Y-67816383D01*
X167436703Y-67776084D01*
X167491959Y-67731849D01*
X167528558Y-67683470D01*
X167546971Y-67630742D01*
X167547669Y-67573455D01*
X167543217Y-67547372D01*
X167527031Y-67493269D01*
X167500143Y-67438710D01*
X167460634Y-67380686D01*
X167406581Y-67316191D01*
X167336064Y-67242216D01*
X167296129Y-67203103D01*
X167233293Y-67145273D01*
X167164481Y-67086379D01*
X167088189Y-67025354D01*
X167002915Y-66961132D01*
X166907158Y-66892646D01*
X166799413Y-66818829D01*
X166678179Y-66738614D01*
X166541953Y-66650937D01*
X166389233Y-66554729D01*
X166218517Y-66448924D01*
X166132333Y-66395790D01*
X165951210Y-66283720D01*
X165763401Y-66167016D01*
X165572579Y-66047980D01*
X165382417Y-65928915D01*
X165196590Y-65812123D01*
X165018770Y-65699907D01*
X164852633Y-65594568D01*
X164701850Y-65498409D01*
X164672887Y-65479873D01*
X164591651Y-65427883D01*
X164516561Y-65379827D01*
X164449714Y-65337046D01*
X164393205Y-65300880D01*
X164349129Y-65272672D01*
X164319581Y-65253762D01*
X164306658Y-65245491D01*
X164288982Y-65229936D01*
X164265917Y-65199758D01*
X164247968Y-65166658D01*
X164240739Y-65139638D01*
X164240992Y-65135396D01*
X164253578Y-65106857D01*
X164280487Y-65081335D01*
X164315260Y-65065276D01*
X164320645Y-65064908D01*
X164336924Y-65067938D01*
G37*
G36*
X161649986Y-65466226D02*
G01*
X161661187Y-65469523D01*
X161676647Y-65477360D01*
X161691619Y-65491347D01*
X161708820Y-65514862D01*
X161730965Y-65551282D01*
X161760772Y-65603985D01*
X161789278Y-65654179D01*
X161825696Y-65716339D01*
X161861041Y-65774869D01*
X161890567Y-65821803D01*
X161949108Y-65911788D01*
X162119924Y-65969838D01*
X162137461Y-65975790D01*
X162211696Y-66000836D01*
X162289724Y-66026971D01*
X162363274Y-66051431D01*
X162424072Y-66071452D01*
X162436898Y-66075659D01*
X162490348Y-66093908D01*
X162527447Y-66108540D01*
X162552371Y-66121680D01*
X162569298Y-66135452D01*
X162582406Y-66151982D01*
X162600448Y-66185906D01*
X162606399Y-66228618D01*
X162590524Y-66267641D01*
X162552682Y-66303698D01*
X162520135Y-66326884D01*
X162362236Y-66282239D01*
X162336287Y-66274920D01*
X162283630Y-66260184D01*
X162240745Y-66248343D01*
X162211499Y-66240459D01*
X162199759Y-66237595D01*
X162202695Y-66242966D01*
X162217157Y-66262206D01*
X162241031Y-66292137D01*
X162271608Y-66329302D01*
X162305490Y-66370348D01*
X162368862Y-66449724D01*
X162428127Y-66528102D01*
X162484551Y-66607634D01*
X162539398Y-66690474D01*
X162593933Y-66778773D01*
X162649422Y-66874683D01*
X162707129Y-66980357D01*
X162768319Y-67097945D01*
X162834258Y-67229601D01*
X162906210Y-67377476D01*
X162985440Y-67543722D01*
X162989396Y-67552077D01*
X163020498Y-67617196D01*
X163060343Y-67699857D01*
X163107930Y-67798016D01*
X163162258Y-67909625D01*
X163222326Y-68032640D01*
X163287132Y-68165015D01*
X163355675Y-68304703D01*
X163426953Y-68449660D01*
X163499965Y-68597839D01*
X163573710Y-68747195D01*
X163647187Y-68895681D01*
X163688598Y-68979355D01*
X163755989Y-69115893D01*
X163820117Y-69246274D01*
X163880317Y-69369125D01*
X163935924Y-69483072D01*
X163986274Y-69586739D01*
X164030702Y-69678753D01*
X164068543Y-69757740D01*
X164099131Y-69822325D01*
X164121804Y-69871134D01*
X164135894Y-69902794D01*
X164140739Y-69915929D01*
X164140594Y-69921587D01*
X164130272Y-69965792D01*
X164106922Y-70003775D01*
X164075145Y-70027698D01*
X164073504Y-70028334D01*
X164047969Y-70033537D01*
X164013664Y-70035705D01*
X163978301Y-70034970D01*
X163949593Y-70031463D01*
X163935253Y-70025315D01*
X163931381Y-70019740D01*
X163916944Y-69999233D01*
X163894445Y-69967383D01*
X163866642Y-69928098D01*
X163830597Y-69876759D01*
X163734165Y-69734500D01*
X163641044Y-69589310D01*
X163549088Y-69437585D01*
X163456149Y-69275719D01*
X163360083Y-69100108D01*
X163258741Y-68907146D01*
X163254148Y-68898249D01*
X163194290Y-68782703D01*
X163142282Y-68683394D01*
X163096166Y-68596921D01*
X163053980Y-68519882D01*
X163013765Y-68448876D01*
X162973562Y-68380502D01*
X162931411Y-68311358D01*
X162885351Y-68238043D01*
X162833423Y-68157157D01*
X162773668Y-68065297D01*
X162730266Y-67998397D01*
X162678901Y-67918200D01*
X162629052Y-67839374D01*
X162583410Y-67766206D01*
X162544668Y-67702988D01*
X162515518Y-67654006D01*
X162503310Y-67632975D01*
X162472043Y-67579164D01*
X162432774Y-67511632D01*
X162387615Y-67434010D01*
X162338677Y-67349927D01*
X162288073Y-67263012D01*
X162237915Y-67176895D01*
X162222479Y-67150385D01*
X162141601Y-67010864D01*
X162070991Y-66887805D01*
X162009520Y-66779084D01*
X161956056Y-66682573D01*
X161909470Y-66596148D01*
X161868631Y-66517683D01*
X161832409Y-66445053D01*
X161799673Y-66376132D01*
X161769293Y-66308793D01*
X161740138Y-66240913D01*
X161701850Y-66149745D01*
X161640739Y-66141100D01*
X161618347Y-66138427D01*
X161554853Y-66134030D01*
X161479352Y-66131983D01*
X161397541Y-66132162D01*
X161315115Y-66134438D01*
X161237768Y-66138688D01*
X161171195Y-66144783D01*
X161121093Y-66152600D01*
X161080367Y-66161891D01*
X160920059Y-66208813D01*
X160772833Y-66268990D01*
X160640153Y-66341534D01*
X160523484Y-66425554D01*
X160424289Y-66520163D01*
X160344033Y-66624470D01*
X160303022Y-66699996D01*
X160263517Y-66808260D01*
X160236832Y-66929544D01*
X160222851Y-67061078D01*
X160221454Y-67200096D01*
X160232522Y-67343828D01*
X160255938Y-67489507D01*
X160291582Y-67634366D01*
X160339337Y-67775636D01*
X160399084Y-67910549D01*
X160478669Y-68056152D01*
X160597202Y-68240258D01*
X160734100Y-68422738D01*
X160887300Y-68601219D01*
X161054738Y-68773329D01*
X161234350Y-68936694D01*
X161424072Y-69088942D01*
X161458427Y-69114413D01*
X161543949Y-69174560D01*
X161632004Y-69231485D01*
X161725261Y-69286597D01*
X161826388Y-69341302D01*
X161938054Y-69397008D01*
X162062926Y-69455122D01*
X162203672Y-69517052D01*
X162362961Y-69584205D01*
X162434269Y-69614071D01*
X162553990Y-69665524D01*
X162673189Y-69718272D01*
X162789866Y-69771332D01*
X162902020Y-69823722D01*
X163007651Y-69874462D01*
X163104758Y-69922570D01*
X163191342Y-69967065D01*
X163265401Y-70006965D01*
X163324936Y-70041289D01*
X163367947Y-70069055D01*
X163392432Y-70089283D01*
X163395946Y-70093560D01*
X163413073Y-70124854D01*
X163424026Y-70161257D01*
X163424903Y-70167042D01*
X163422682Y-70212758D01*
X163401429Y-70250847D01*
X163359580Y-70284299D01*
X163354713Y-70287195D01*
X163328460Y-70300549D01*
X163310827Y-70306000D01*
X163309843Y-70305928D01*
X163291735Y-70301697D01*
X163255804Y-70291584D01*
X163204922Y-70276490D01*
X163141965Y-70257316D01*
X163069806Y-70234963D01*
X162991318Y-70210332D01*
X162909377Y-70184325D01*
X162826855Y-70157842D01*
X162746628Y-70131784D01*
X162671568Y-70107053D01*
X162604550Y-70084550D01*
X162541280Y-70062795D01*
X162419652Y-70019181D01*
X162315911Y-69979161D01*
X162227497Y-69941727D01*
X162151850Y-69905866D01*
X162151045Y-69905460D01*
X162124349Y-69892906D01*
X162098494Y-69883530D01*
X162068873Y-69876460D01*
X162030879Y-69870827D01*
X161979908Y-69865758D01*
X161911351Y-69860383D01*
X161906229Y-69860011D01*
X161777483Y-69854036D01*
X161628917Y-69852958D01*
X161462303Y-69856740D01*
X161279410Y-69865341D01*
X161082011Y-69878724D01*
X161027761Y-69882893D01*
X160966248Y-69887378D01*
X160921291Y-69890002D01*
X160889587Y-69890680D01*
X160867830Y-69889325D01*
X160852718Y-69885854D01*
X160840946Y-69880181D01*
X160829211Y-69872221D01*
X160828383Y-69871629D01*
X160790817Y-69836563D01*
X160775345Y-69800558D01*
X160781843Y-69762621D01*
X160810183Y-69721760D01*
X160846295Y-69682487D01*
X161162961Y-69655457D01*
X161177937Y-69654180D01*
X161259133Y-69647291D01*
X161333033Y-69641082D01*
X161396668Y-69635796D01*
X161447069Y-69631680D01*
X161481268Y-69628978D01*
X161496295Y-69627935D01*
X161497045Y-69627804D01*
X161491712Y-69621591D01*
X161470139Y-69607475D01*
X161435443Y-69587368D01*
X161390739Y-69563180D01*
X161215456Y-69464208D01*
X161026298Y-69341701D01*
X160847217Y-69209055D01*
X160682253Y-69069281D01*
X160535444Y-68925391D01*
X160518078Y-68906819D01*
X160458093Y-68840249D01*
X160405135Y-68776567D01*
X160357050Y-68712401D01*
X160311683Y-68644377D01*
X160266878Y-68569123D01*
X160220481Y-68483268D01*
X160170338Y-68383437D01*
X160114293Y-68266260D01*
X160106939Y-68250666D01*
X160072840Y-68179339D01*
X160039075Y-68110155D01*
X160007889Y-68047625D01*
X159981525Y-67996260D01*
X159962229Y-67960571D01*
X159936947Y-67915186D01*
X159880388Y-67802540D01*
X159837197Y-67695493D01*
X159805990Y-67588671D01*
X159785384Y-67476698D01*
X159773993Y-67354200D01*
X159770434Y-67215801D01*
X159775624Y-67062874D01*
X159794595Y-66905822D01*
X159828346Y-66761099D01*
X159877788Y-66625713D01*
X159943829Y-66496672D01*
X160027380Y-66370987D01*
X160087989Y-66294826D01*
X160152481Y-66225916D01*
X160223728Y-66162138D01*
X160304663Y-66101285D01*
X160398221Y-66041151D01*
X160507335Y-65979530D01*
X160634941Y-65914217D01*
X160710155Y-65877720D01*
X160795069Y-65838749D01*
X160867989Y-65808901D01*
X160933018Y-65787019D01*
X160994261Y-65771949D01*
X161055819Y-65762533D01*
X161121796Y-65757615D01*
X161196295Y-65756039D01*
X161282750Y-65757224D01*
X161376907Y-65763319D01*
X161455886Y-65774800D01*
X161477753Y-65778981D01*
X161517839Y-65785969D01*
X161546359Y-65789997D01*
X161558214Y-65790294D01*
X161558483Y-65788774D01*
X161555306Y-65771827D01*
X161546933Y-65740603D01*
X161534734Y-65700349D01*
X161519493Y-65649725D01*
X161510845Y-65610441D01*
X161509702Y-65579645D01*
X161515869Y-65551015D01*
X161529153Y-65518228D01*
X161537823Y-65501474D01*
X161564943Y-65471600D01*
X161601262Y-65460311D01*
X161649986Y-65466226D01*
G37*
%TD*%
M02*
