%TF.GenerationSoftware,KiCad,Pcbnew,7.0.1*%
%TF.CreationDate,2023-04-14T22:18:01+07:00*%
%TF.ProjectId,DO_AN_DKTD,444f5f41-4e5f-4444-9b54-442e6b696361,rev?*%
%TF.SameCoordinates,Original*%
%TF.FileFunction,Soldermask,Top*%
%TF.FilePolarity,Negative*%
%FSLAX46Y46*%
G04 Gerber Fmt 4.6, Leading zero omitted, Abs format (unit mm)*
G04 Created by KiCad (PCBNEW 7.0.1) date 2023-04-14 22:18:01*
%MOMM*%
%LPD*%
G01*
G04 APERTURE LIST*
G04 Aperture macros list*
%AMRoundRect*
0 Rectangle with rounded corners*
0 $1 Rounding radius*
0 $2 $3 $4 $5 $6 $7 $8 $9 X,Y pos of 4 corners*
0 Add a 4 corners polygon primitive as box body*
4,1,4,$2,$3,$4,$5,$6,$7,$8,$9,$2,$3,0*
0 Add four circle primitives for the rounded corners*
1,1,$1+$1,$2,$3*
1,1,$1+$1,$4,$5*
1,1,$1+$1,$6,$7*
1,1,$1+$1,$8,$9*
0 Add four rect primitives between the rounded corners*
20,1,$1+$1,$2,$3,$4,$5,0*
20,1,$1+$1,$4,$5,$6,$7,0*
20,1,$1+$1,$6,$7,$8,$9,0*
20,1,$1+$1,$8,$9,$2,$3,0*%
%AMOutline5P*
0 Free polygon, 5 corners , with rotation*
0 The origin of the aperture is its center*
0 number of corners: always 5*
0 $1 to $10 corner X, Y*
0 $11 Rotation angle, in degrees counterclockwise*
0 create outline with 5 corners*
4,1,5,$1,$2,$3,$4,$5,$6,$7,$8,$9,$10,$1,$2,$11*%
%AMOutline6P*
0 Free polygon, 6 corners , with rotation*
0 The origin of the aperture is its center*
0 number of corners: always 6*
0 $1 to $12 corner X, Y*
0 $13 Rotation angle, in degrees counterclockwise*
0 create outline with 6 corners*
4,1,6,$1,$2,$3,$4,$5,$6,$7,$8,$9,$10,$11,$12,$1,$2,$13*%
%AMOutline7P*
0 Free polygon, 7 corners , with rotation*
0 The origin of the aperture is its center*
0 number of corners: always 7*
0 $1 to $14 corner X, Y*
0 $15 Rotation angle, in degrees counterclockwise*
0 create outline with 7 corners*
4,1,7,$1,$2,$3,$4,$5,$6,$7,$8,$9,$10,$11,$12,$13,$14,$1,$2,$15*%
%AMOutline8P*
0 Free polygon, 8 corners , with rotation*
0 The origin of the aperture is its center*
0 number of corners: always 8*
0 $1 to $16 corner X, Y*
0 $17 Rotation angle, in degrees counterclockwise*
0 create outline with 8 corners*
4,1,8,$1,$2,$3,$4,$5,$6,$7,$8,$9,$10,$11,$12,$13,$14,$15,$16,$1,$2,$17*%
%AMFreePoly0*
4,1,18,-0.700000,0.540000,-0.695433,0.562961,-0.682426,0.582426,-0.662961,0.595433,-0.640000,0.600000,0.640000,0.600000,0.662961,0.595433,0.682426,0.582426,0.695433,0.562961,0.700000,0.540000,0.700000,-0.540000,0.695433,-0.562961,0.682426,-0.582426,0.662961,-0.595433,0.640000,-0.600000,-0.400000,-0.600000,-0.700000,-0.300000,-0.700000,0.540000,-0.700000,0.540000,$1*%
G04 Aperture macros list end*
%ADD10C,0.010000*%
%ADD11Outline5P,-0.975000X0.000000X-0.675000X0.300000X0.975000X0.300000X0.975000X-0.300000X-0.975000X-0.300000X270.000000*%
%ADD12RoundRect,0.150000X-0.150000X0.825000X-0.150000X-0.825000X0.150000X-0.825000X0.150000X0.825000X0*%
%ADD13Outline5P,-0.975000X0.000000X-0.675000X0.300000X0.975000X0.300000X0.975000X-0.300000X-0.975000X-0.300000X90.000000*%
%ADD14RoundRect,0.150000X0.150000X-0.825000X0.150000X0.825000X-0.150000X0.825000X-0.150000X-0.825000X0*%
%ADD15Outline5P,-1.025000X0.000000X-0.725000X0.300000X1.025000X0.300000X1.025000X-0.300000X-1.025000X-0.300000X90.000000*%
%ADD16RoundRect,0.150000X0.150000X-0.875000X0.150000X0.875000X-0.150000X0.875000X-0.150000X-0.875000X0*%
%ADD17RoundRect,0.180000X-1.020000X-0.720000X1.020000X-0.720000X1.020000X0.720000X-1.020000X0.720000X0*%
%ADD18R,3.600000X2.700000*%
%ADD19C,2.000000*%
%ADD20FreePoly0,90.000000*%
%ADD21RoundRect,0.060000X0.540000X-0.640000X0.540000X0.640000X-0.540000X0.640000X-0.540000X-0.640000X0*%
%ADD22RoundRect,0.090000X0.210000X-0.410000X0.210000X0.410000X-0.210000X0.410000X-0.210000X-0.410000X0*%
%ADD23RoundRect,0.090000X0.410000X0.210000X-0.410000X0.210000X-0.410000X-0.210000X0.410000X-0.210000X0*%
%ADD24RoundRect,0.090000X-0.410000X-0.210000X0.410000X-0.210000X0.410000X0.210000X-0.410000X0.210000X0*%
%ADD25RoundRect,0.127500X0.297500X0.322500X-0.297500X0.322500X-0.297500X-0.322500X0.297500X-0.322500X0*%
%ADD26O,3.500000X2.200000*%
%ADD27RoundRect,0.127500X-0.322500X0.297500X-0.322500X-0.297500X0.322500X-0.297500X0.322500X0.297500X0*%
%ADD28RoundRect,0.127500X-0.297500X-0.322500X0.297500X-0.322500X0.297500X0.322500X-0.297500X0.322500X0*%
%ADD29RoundRect,0.127500X0.322500X-0.297500X0.322500X0.297500X-0.322500X0.297500X-0.322500X-0.297500X0*%
%ADD30RoundRect,0.127500X0.438406X0.017678X0.017678X0.438406X-0.438406X-0.017678X-0.017678X-0.438406X0*%
%ADD31RoundRect,0.162500X0.162500X-0.362500X0.162500X0.362500X-0.162500X0.362500X-0.162500X-0.362500X0*%
%ADD32R,2.000000X2.000000*%
%ADD33R,2.000000X3.200000*%
%ADD34RoundRect,0.150000X-0.525000X0.350000X-0.525000X-0.350000X0.525000X-0.350000X0.525000X0.350000X0*%
%ADD35RoundRect,0.075000X0.662500X0.075000X-0.662500X0.075000X-0.662500X-0.075000X0.662500X-0.075000X0*%
%ADD36RoundRect,0.075000X0.075000X0.662500X-0.075000X0.662500X-0.075000X-0.662500X0.075000X-0.662500X0*%
%ADD37R,1.700000X1.700000*%
%ADD38O,1.700000X1.700000*%
%ADD39O,2.250000X1.600000*%
%ADD40C,1.700000*%
%ADD41C,1.524000*%
%ADD42C,0.650000*%
%ADD43RoundRect,0.075000X-0.675000X0.075000X-0.675000X-0.075000X0.675000X-0.075000X0.675000X0.075000X0*%
%ADD44O,2.100000X1.000000*%
%ADD45O,1.600000X1.000000*%
%ADD46R,1.875000X1.050000*%
%ADD47O,2.616000X1.308000*%
%ADD48R,1.200000X0.600000*%
%ADD49C,1.000000*%
%ADD50C,1.244600*%
%ADD51RoundRect,0.647700X0.647700X-1.155700X0.647700X1.155700X-0.647700X1.155700X-0.647700X-1.155700X0*%
%ADD52R,1.400000X1.760000*%
%ADD53R,3.500000X1.760000*%
%ADD54R,2.800000X1.100000*%
%ADD55R,2.600000X1.100000*%
%ADD56C,0.800000*%
%ADD57C,6.400000*%
%ADD58RoundRect,0.250000X-1.450000X0.312500X-1.450000X-0.312500X1.450000X-0.312500X1.450000X0.312500X0*%
%ADD59RoundRect,0.150000X-0.350000X-0.525000X0.350000X-0.525000X0.350000X0.525000X-0.350000X0.525000X0*%
%ADD60R,1.000000X2.500000*%
%ADD61R,4.400000X1.800000*%
%ADD62O,4.000000X1.800000*%
%ADD63O,1.800000X4.000000*%
%ADD64R,3.810000X4.240000*%
%ADD65RoundRect,0.180000X1.020000X0.720000X-1.020000X0.720000X-1.020000X-0.720000X1.020000X-0.720000X0*%
%ADD66R,2.000000X1.905000*%
%ADD67O,2.000000X1.905000*%
%ADD68C,0.950000*%
%ADD69R,0.620000X1.400000*%
%ADD70R,1.100000X2.400000*%
%ADD71RoundRect,0.250000X-0.312500X-1.450000X0.312500X-1.450000X0.312500X1.450000X-0.312500X1.450000X0*%
G04 APERTURE END LIST*
%TO.C,D5*%
D10*
X121600000Y-134625000D02*
X120699300Y-134625000D01*
X120699300Y-134174564D01*
X121600000Y-134174564D01*
X121600000Y-134625000D01*
G36*
X121600000Y-134625000D02*
G01*
X120699300Y-134625000D01*
X120699300Y-134174564D01*
X121600000Y-134174564D01*
X121600000Y-134625000D01*
G37*
X123500000Y-134625000D02*
X122600083Y-134625000D01*
X122600083Y-134174855D01*
X123500000Y-134174855D01*
X123500000Y-134625000D01*
G36*
X123500000Y-134625000D02*
G01*
X122600083Y-134625000D01*
X122600083Y-134174855D01*
X123500000Y-134174855D01*
X123500000Y-134625000D01*
G37*
X123500000Y-135275000D02*
X122600565Y-135275000D01*
X122600565Y-134824746D01*
X123500000Y-134824746D01*
X123500000Y-135275000D01*
G36*
X123500000Y-135275000D02*
G01*
X122600565Y-135275000D01*
X122600565Y-134824746D01*
X123500000Y-134824746D01*
X123500000Y-135275000D01*
G37*
X121600000Y-135275000D02*
X120699180Y-135275000D01*
X120699180Y-134824869D01*
X121600000Y-134824869D01*
X121600000Y-135275000D01*
G36*
X121600000Y-135275000D02*
G01*
X120699180Y-135275000D01*
X120699180Y-134824869D01*
X121600000Y-134824869D01*
X121600000Y-135275000D01*
G37*
X123500000Y-135925000D02*
X122600308Y-135925000D01*
X122600308Y-135475262D01*
X123500000Y-135475262D01*
X123500000Y-135925000D01*
G36*
X123500000Y-135925000D02*
G01*
X122600308Y-135925000D01*
X122600308Y-135475262D01*
X123500000Y-135475262D01*
X123500000Y-135925000D01*
G37*
X121600000Y-135925000D02*
X120698190Y-135925000D01*
X120698190Y-135475551D01*
X121600000Y-135475551D01*
X121600000Y-135925000D01*
G36*
X121600000Y-135925000D02*
G01*
X120698190Y-135925000D01*
X120698190Y-135475551D01*
X121600000Y-135475551D01*
X121600000Y-135925000D01*
G37*
%TD*%
D11*
%TO.C,U5*%
X123270000Y-64550000D03*
D12*
X122000000Y-64550000D03*
X120730000Y-64550000D03*
X119460000Y-64550000D03*
X119460000Y-69500000D03*
X120730000Y-69500000D03*
X122000000Y-69500000D03*
X123270000Y-69500000D03*
%TD*%
D13*
%TO.C,U8*%
X118325000Y-100975000D03*
D14*
X119595000Y-100975000D03*
X120865000Y-100975000D03*
X122135000Y-100975000D03*
X122135000Y-96025000D03*
X120865000Y-96025000D03*
X119595000Y-96025000D03*
X118325000Y-96025000D03*
%TD*%
D15*
%TO.C,IC1*%
X117055000Y-86650000D03*
D16*
X118325000Y-86650000D03*
X119595000Y-86650000D03*
X120865000Y-86650000D03*
X122135000Y-86650000D03*
X123405000Y-86650000D03*
X124675000Y-86650000D03*
X125945000Y-86650000D03*
X125945000Y-77350000D03*
X124675000Y-77350000D03*
X123405000Y-77350000D03*
X122135000Y-77350000D03*
X120865000Y-77350000D03*
X119595000Y-77350000D03*
X118325000Y-77350000D03*
X117055000Y-77350000D03*
%TD*%
D17*
%TO.C,D8*%
X134700000Y-64250000D03*
X130650000Y-64250000D03*
%TD*%
D18*
%TO.C,L1*%
X122000000Y-57650000D03*
X122000000Y-49350000D03*
%TD*%
D19*
%TO.C,MI*%
X120300000Y-142890000D03*
%TD*%
D20*
%TO.C,Y1*%
X129850000Y-114350000D03*
D21*
X129850000Y-112150000D03*
X128150000Y-112150000D03*
X128150000Y-114350000D03*
%TD*%
D22*
%TO.C,Q9*%
X124300000Y-98637500D03*
X126200000Y-98637500D03*
X125250000Y-96362500D03*
%TD*%
D23*
%TO.C,D4*%
X121887500Y-75200000D03*
X121887500Y-73300000D03*
X119612500Y-74250000D03*
%TD*%
D24*
%TO.C,Q8*%
X156352500Y-112710000D03*
X156352500Y-114610000D03*
X158627500Y-113660000D03*
%TD*%
D25*
%TO.C,C14*%
X119875000Y-89000000D03*
X118325000Y-89000000D03*
%TD*%
D26*
%TO.C,J2*%
X184750000Y-55250000D03*
X184750000Y-50250000D03*
%TD*%
D25*
%TO.C,R31*%
X107275000Y-101500000D03*
X105725000Y-101500000D03*
%TD*%
D27*
%TO.C,R26*%
X116550000Y-73525000D03*
X116550000Y-75075000D03*
%TD*%
D28*
%TO.C,C16*%
X143900000Y-125650000D03*
X145450000Y-125650000D03*
%TD*%
D27*
%TO.C,R55*%
X111000000Y-109975000D03*
X111000000Y-111525000D03*
%TD*%
D28*
%TO.C,R58*%
X111375000Y-106300000D03*
X112925000Y-106300000D03*
%TD*%
D24*
%TO.C,Q2*%
X148202500Y-82115000D03*
X148202500Y-84015000D03*
X150477500Y-83065000D03*
%TD*%
D25*
%TO.C,R51*%
X110025000Y-50250000D03*
X108475000Y-50250000D03*
%TD*%
D24*
%TO.C,Q6*%
X156352500Y-105710000D03*
X156352500Y-107610000D03*
X158627500Y-106660000D03*
%TD*%
D28*
%TO.C,R1*%
X143875000Y-124150000D03*
X145425000Y-124150000D03*
%TD*%
D27*
%TO.C,R41*%
X123500000Y-73475000D03*
X123500000Y-75025000D03*
%TD*%
%TO.C,C22*%
X118000000Y-137725000D03*
X118000000Y-139275000D03*
%TD*%
D28*
%TO.C,C10*%
X129725000Y-126550000D03*
X131275000Y-126550000D03*
%TD*%
D29*
%TO.C,R36*%
X154740000Y-110885000D03*
X154740000Y-109335000D03*
%TD*%
D30*
%TO.C,R42*%
X164548008Y-123298008D03*
X163451992Y-122201992D03*
%TD*%
D23*
%TO.C,Q4*%
X161387500Y-62450000D03*
X161387500Y-60550000D03*
X159112500Y-61500000D03*
%TD*%
D31*
%TO.C,SW2*%
X160400000Y-143062500D03*
X160400000Y-138412500D03*
X162550000Y-143062500D03*
X162550000Y-138412500D03*
%TD*%
D32*
%TO.C,SW1*%
X152188400Y-128131600D03*
D19*
X147188400Y-128131600D03*
X149688400Y-128131600D03*
D33*
X155288400Y-135631600D03*
X144088400Y-135631600D03*
D19*
X147188400Y-142631600D03*
X152188400Y-142631600D03*
%TD*%
%TO.C,MO*%
X120300000Y-137810000D03*
%TD*%
D32*
%TO.C,BZ1*%
X137500000Y-96600000D03*
D19*
X129900000Y-96600000D03*
%TD*%
D29*
%TO.C,C13*%
X126500000Y-112775000D03*
X126500000Y-111225000D03*
%TD*%
D34*
%TO.C,C24*%
X127450000Y-64850000D03*
X127450000Y-66750000D03*
%TD*%
D35*
%TO.C,U7*%
X121162500Y-115500000D03*
X121162500Y-115000000D03*
X121162500Y-114500000D03*
X121162500Y-114000000D03*
X121162500Y-113500000D03*
X121162500Y-113000000D03*
X121162500Y-112500000D03*
X121162500Y-112000000D03*
X121162500Y-111500000D03*
X121162500Y-111000000D03*
X121162500Y-110500000D03*
X121162500Y-110000000D03*
D36*
X119750000Y-108587500D03*
X119250000Y-108587500D03*
X118750000Y-108587500D03*
X118250000Y-108587500D03*
X117750000Y-108587500D03*
X117250000Y-108587500D03*
X116750000Y-108587500D03*
X116250000Y-108587500D03*
X115750000Y-108587500D03*
X115250000Y-108587500D03*
X114750000Y-108587500D03*
X114250000Y-108587500D03*
D35*
X112837500Y-110000000D03*
X112837500Y-110500000D03*
X112837500Y-111000000D03*
X112837500Y-111500000D03*
X112837500Y-112000000D03*
X112837500Y-112500000D03*
X112837500Y-113000000D03*
X112837500Y-113500000D03*
X112837500Y-114000000D03*
X112837500Y-114500000D03*
X112837500Y-115000000D03*
X112837500Y-115500000D03*
D36*
X114250000Y-116912500D03*
X114750000Y-116912500D03*
X115250000Y-116912500D03*
X115750000Y-116912500D03*
X116250000Y-116912500D03*
X116750000Y-116912500D03*
X117250000Y-116912500D03*
X117750000Y-116912500D03*
X118250000Y-116912500D03*
X118750000Y-116912500D03*
X119250000Y-116912500D03*
X119750000Y-116912500D03*
%TD*%
D29*
%TO.C,R40*%
X125000000Y-114525000D03*
X125000000Y-112975000D03*
%TD*%
%TO.C,LE4*%
X132590000Y-114975000D03*
X132590000Y-116525000D03*
%TD*%
D37*
%TO.C,J6*%
X180850000Y-120000000D03*
D38*
X178310000Y-120000000D03*
X175770000Y-120000000D03*
X173230000Y-120000000D03*
X170690000Y-120000000D03*
X168150000Y-120000000D03*
%TD*%
D27*
%TO.C,C23*%
X116500000Y-137725000D03*
X116500000Y-139275000D03*
%TD*%
D39*
%TO.C,U3*%
X156900000Y-67340000D03*
X156900000Y-64800000D03*
X148400000Y-64800000D03*
X148400000Y-67340000D03*
%TD*%
D24*
%TO.C,Q3*%
X148202500Y-78615000D03*
X148202500Y-80515000D03*
X150477500Y-79565000D03*
%TD*%
D28*
%TO.C,C35*%
X111375000Y-107800000D03*
X112925000Y-107800000D03*
%TD*%
D31*
%TO.C,SW4*%
X160390000Y-130112500D03*
X160390000Y-125462500D03*
X162540000Y-130112500D03*
X162540000Y-125462500D03*
%TD*%
D27*
%TO.C,C5*%
X170500000Y-65475000D03*
X170500000Y-67025000D03*
%TD*%
D29*
%TO.C,C6*%
X178025000Y-52525000D03*
X178025000Y-50975000D03*
%TD*%
%TO.C,R28*%
X146590000Y-83840000D03*
X146590000Y-82290000D03*
%TD*%
D37*
%TO.C,J1*%
X100510000Y-50310000D03*
D38*
X100510000Y-52850000D03*
D40*
X100510000Y-55390000D03*
D41*
X100510000Y-57930000D03*
X100510000Y-60470000D03*
X100510000Y-63010000D03*
X100510000Y-65550000D03*
%TD*%
D27*
%TO.C,R13*%
X168862500Y-94905000D03*
X168862500Y-96455000D03*
%TD*%
%TO.C,C36*%
X123350000Y-109825000D03*
X123350000Y-111375000D03*
%TD*%
%TO.C,R46*%
X164240000Y-125537500D03*
X164240000Y-127087500D03*
%TD*%
D42*
%TO.C,J9*%
X103425000Y-107860000D03*
X103425000Y-113640000D03*
D43*
X104850000Y-107400000D03*
X104850000Y-108200000D03*
X104850000Y-109500000D03*
X104850000Y-110500000D03*
X104850000Y-111000000D03*
X104850000Y-112000000D03*
X104850000Y-113300000D03*
X104850000Y-114100000D03*
X104850000Y-113800000D03*
X104850000Y-113000000D03*
X104850000Y-112500000D03*
X104850000Y-111500000D03*
X104850000Y-110000000D03*
X104850000Y-109000000D03*
X104850000Y-108500000D03*
X104850000Y-107700000D03*
D44*
X104105000Y-106430000D03*
D45*
X99925000Y-106430000D03*
D44*
X104105000Y-115070000D03*
D45*
X99925000Y-115070000D03*
%TD*%
D27*
%TO.C,R61*%
X115800000Y-103775000D03*
X115800000Y-105325000D03*
%TD*%
D28*
%TO.C,R4*%
X141325000Y-93600000D03*
X142875000Y-93600000D03*
%TD*%
D29*
%TO.C,R43*%
X164250000Y-136775000D03*
X164250000Y-135225000D03*
%TD*%
D27*
%TO.C,R9*%
X170500000Y-68475000D03*
X170500000Y-70025000D03*
%TD*%
D25*
%TO.C,LE6*%
X105725000Y-93500000D03*
X107275000Y-93500000D03*
%TD*%
D46*
%TO.C,D1*%
X163087500Y-65000000D03*
X168412500Y-67500000D03*
X163087500Y-67500000D03*
X168412500Y-65000000D03*
%TD*%
D47*
%TO.C,U4*%
X148440000Y-50340000D03*
X148440000Y-52880000D03*
X148440000Y-55420000D03*
X156060000Y-55420000D03*
X156060000Y-52880000D03*
X156060000Y-50340000D03*
%TD*%
D28*
%TO.C,R7*%
X141300000Y-95600000D03*
X142850000Y-95600000D03*
%TD*%
D25*
%TO.C,R50*%
X110025000Y-48750000D03*
X108475000Y-48750000D03*
%TD*%
D29*
%TO.C,C25*%
X125400000Y-66575000D03*
X125400000Y-65025000D03*
%TD*%
%TO.C,R11*%
X177982500Y-86955000D03*
X177982500Y-85405000D03*
%TD*%
D25*
%TO.C,R62*%
X120775000Y-120250000D03*
X119225000Y-120250000D03*
%TD*%
%TO.C,C17*%
X148738400Y-125650000D03*
X147188400Y-125650000D03*
%TD*%
D34*
%TO.C,C27*%
X112500000Y-52750000D03*
X112500000Y-54650000D03*
%TD*%
D29*
%TO.C,LE3*%
X136590000Y-115013107D03*
X136590000Y-116563107D03*
%TD*%
D48*
%TO.C,U6*%
X150720000Y-111445000D03*
X150720000Y-110175000D03*
X150720000Y-108905000D03*
X150720000Y-107635000D03*
X150720000Y-106365000D03*
X150720000Y-105095000D03*
X150720000Y-103825000D03*
X150720000Y-102555000D03*
X145120000Y-102555000D03*
X145120000Y-103825000D03*
X145120000Y-105095000D03*
X145120000Y-106365000D03*
X145120000Y-107635000D03*
X145120000Y-108905000D03*
X145120000Y-110175000D03*
X145120000Y-111445000D03*
%TD*%
D27*
%TO.C,R32*%
X126700000Y-68425000D03*
X126700000Y-69975000D03*
%TD*%
D28*
%TO.C,R5*%
X141300000Y-91600000D03*
X142850000Y-91600000D03*
%TD*%
D25*
%TO.C,C31*%
X169200000Y-122750000D03*
X167650000Y-122750000D03*
%TD*%
D29*
%TO.C,R15*%
X170362500Y-86955000D03*
X170362500Y-85405000D03*
%TD*%
D24*
%TO.C,Q7*%
X156352500Y-102360000D03*
X156352500Y-104260000D03*
X158627500Y-103310000D03*
%TD*%
D29*
%TO.C,C30*%
X164250000Y-140025000D03*
X164250000Y-138475000D03*
%TD*%
D25*
%TO.C,C3*%
X110425000Y-69150000D03*
X108875000Y-69150000D03*
%TD*%
D28*
%TO.C,LE8*%
X107025000Y-50250000D03*
X105475000Y-50250000D03*
%TD*%
D29*
%TO.C,C12*%
X126500000Y-115775000D03*
X126500000Y-114225000D03*
%TD*%
D25*
%TO.C,C7*%
X160775000Y-65000000D03*
X159225000Y-65000000D03*
%TD*%
%TO.C,C20*%
X119875000Y-92500000D03*
X118325000Y-92500000D03*
%TD*%
%TO.C,C32*%
X169200000Y-124250000D03*
X167650000Y-124250000D03*
%TD*%
D29*
%TO.C,R25*%
X146075000Y-51900000D03*
X146075000Y-50350000D03*
%TD*%
D27*
%TO.C,R16*%
X173362500Y-94905000D03*
X173362500Y-96455000D03*
%TD*%
%TO.C,C33*%
X111000000Y-115000000D03*
X111000000Y-116550000D03*
%TD*%
D49*
%TO.C,BT1*%
X136960000Y-83796500D03*
D50*
X136960000Y-76303500D03*
D51*
X136960000Y-72150600D03*
X136960000Y-87949400D03*
%TD*%
D28*
%TO.C,R60*%
X124400000Y-100387500D03*
X125950000Y-100387500D03*
%TD*%
D27*
%TO.C,R48*%
X134590000Y-111475000D03*
X134590000Y-113025000D03*
%TD*%
D29*
%TO.C,C29*%
X164250000Y-133762500D03*
X164250000Y-132212500D03*
%TD*%
D28*
%TO.C,C34*%
X119225000Y-118750000D03*
X120775000Y-118750000D03*
%TD*%
D24*
%TO.C,Q5*%
X156352500Y-109160000D03*
X156352500Y-111060000D03*
X158627500Y-110110000D03*
%TD*%
D19*
%TO.C,D+*%
X100360000Y-103800000D03*
%TD*%
D37*
%TO.C,J3*%
X101250000Y-80420000D03*
D38*
X101250000Y-82960000D03*
D40*
X101250000Y-85500000D03*
D41*
X101250000Y-88040000D03*
%TD*%
D52*
%TO.C,U1*%
X111150000Y-60815000D03*
D53*
X108850000Y-67065000D03*
D52*
X108850000Y-60815000D03*
X106550000Y-60815000D03*
%TD*%
D28*
%TO.C,C2*%
X110225000Y-58500000D03*
X111775000Y-58500000D03*
%TD*%
D54*
%TO.C,U9*%
X113850000Y-141750000D03*
D55*
X113950000Y-139750000D03*
X113950000Y-137750000D03*
X113950000Y-135750000D03*
X113950000Y-133750000D03*
X113950000Y-131750000D03*
X113950000Y-129750000D03*
X113950000Y-127750000D03*
X98550000Y-127750000D03*
X98550000Y-129750000D03*
X98550000Y-131750000D03*
X98550000Y-133750000D03*
X98550000Y-135750000D03*
X98550000Y-137750000D03*
X98550000Y-139750000D03*
X98550000Y-141750000D03*
%TD*%
D29*
%TO.C,R24*%
X148400000Y-71775000D03*
X148400000Y-70225000D03*
%TD*%
D56*
%TO.C,REF\u002A\u002A*%
X99100000Y-72750000D03*
X99802944Y-71052944D03*
X99802944Y-74447056D03*
X101500000Y-70350000D03*
D57*
X101500000Y-72750000D03*
D56*
X101500000Y-75150000D03*
X103197056Y-71052944D03*
X103197056Y-74447056D03*
X103900000Y-72750000D03*
%TD*%
D41*
%TO.C,LE2*%
X169320000Y-113560000D03*
X171860000Y-113560000D03*
X174400000Y-113560000D03*
X176940000Y-113560000D03*
X179480000Y-113560000D03*
X182020000Y-113560000D03*
X182020000Y-103400000D03*
X179480000Y-103400000D03*
X176940000Y-103400000D03*
X174400000Y-103400000D03*
X171860000Y-103400000D03*
X169320000Y-103400000D03*
%TD*%
D28*
%TO.C,LE7*%
X107025000Y-48750000D03*
X105475000Y-48750000D03*
%TD*%
%TO.C,R8*%
X141325000Y-97600000D03*
X142875000Y-97600000D03*
%TD*%
D58*
%TO.C,F3*%
X141785000Y-57112500D03*
X141785000Y-61387500D03*
%TD*%
D41*
%TO.C,LE1*%
X165282500Y-98600000D03*
X167822500Y-98600000D03*
X170362500Y-98600000D03*
X172902500Y-98600000D03*
X175442500Y-98600000D03*
X177982500Y-98600000D03*
X177982500Y-83360000D03*
X175442500Y-83360000D03*
X172902500Y-83360000D03*
X170362500Y-83360000D03*
X167822500Y-83360000D03*
X165282500Y-83360000D03*
%TD*%
D56*
%TO.C,REF\u002A\u002A*%
X99100000Y-121250000D03*
X99802944Y-119552944D03*
X99802944Y-122947056D03*
X101500000Y-118850000D03*
D57*
X101500000Y-121250000D03*
D56*
X101500000Y-123650000D03*
X103197056Y-119552944D03*
X103197056Y-122947056D03*
X103900000Y-121250000D03*
%TD*%
D27*
%TO.C,R27*%
X118050000Y-73525000D03*
X118050000Y-75075000D03*
%TD*%
D24*
%TO.C,Q1*%
X148202500Y-85615000D03*
X148202500Y-87515000D03*
X150477500Y-86565000D03*
%TD*%
D59*
%TO.C,R23*%
X158800000Y-50340000D03*
X160700000Y-50340000D03*
%TD*%
D56*
%TO.C,REF\u002A\u002A*%
X184100000Y-72750000D03*
X184802944Y-71052944D03*
X184802944Y-74447056D03*
X186500000Y-70350000D03*
D57*
X186500000Y-72750000D03*
D56*
X186500000Y-75150000D03*
X188197056Y-71052944D03*
X188197056Y-74447056D03*
X188900000Y-72750000D03*
%TD*%
D29*
%TO.C,R10*%
X167822500Y-86955000D03*
X167822500Y-85405000D03*
%TD*%
D28*
%TO.C,C8*%
X162475000Y-50250000D03*
X164025000Y-50250000D03*
%TD*%
D60*
%TO.C,U10*%
X183200000Y-126650000D03*
X181200000Y-126650000D03*
X179200000Y-126650000D03*
X177200000Y-126650000D03*
X175200000Y-126650000D03*
X173200000Y-126650000D03*
X171200000Y-126650000D03*
X169200000Y-126650000D03*
X169200000Y-141850000D03*
X171200000Y-141850000D03*
X173200000Y-141850000D03*
X175200000Y-141850000D03*
X177200000Y-141850000D03*
X179200000Y-141850000D03*
X181200000Y-141850000D03*
X183200000Y-141850000D03*
%TD*%
D29*
%TO.C,LE5*%
X134590000Y-114975000D03*
X134590000Y-116525000D03*
%TD*%
D19*
%TO.C,SCK*%
X120300000Y-140350000D03*
%TD*%
D25*
%TO.C,C21*%
X119875000Y-94000000D03*
X118325000Y-94000000D03*
%TD*%
D28*
%TO.C,R20*%
X162475000Y-52790000D03*
X164025000Y-52790000D03*
%TD*%
D61*
%TO.C,J10*%
X134250000Y-61050000D03*
D62*
X134250000Y-55250000D03*
D63*
X129450000Y-58050000D03*
%TD*%
D27*
%TO.C,R17*%
X170362500Y-94905000D03*
X170362500Y-96455000D03*
%TD*%
D28*
%TO.C,R19*%
X176475000Y-55750000D03*
X178025000Y-55750000D03*
%TD*%
D27*
%TO.C,R47*%
X132590000Y-111475000D03*
X132590000Y-113025000D03*
%TD*%
D28*
%TO.C,R3*%
X150638400Y-124150000D03*
X152188400Y-124150000D03*
%TD*%
D29*
%TO.C,R37*%
X154740000Y-107435000D03*
X154740000Y-105885000D03*
%TD*%
%TO.C,R45*%
X164250000Y-143025000D03*
X164250000Y-141475000D03*
%TD*%
D48*
%TO.C,U2*%
X150670000Y-97970000D03*
X150670000Y-96700000D03*
X150670000Y-95430000D03*
X150670000Y-94160000D03*
X150670000Y-92890000D03*
X150670000Y-91620000D03*
X150670000Y-90350000D03*
X150670000Y-89080000D03*
X145070000Y-89080000D03*
X145070000Y-90350000D03*
X145070000Y-91620000D03*
X145070000Y-92890000D03*
X145070000Y-94160000D03*
X145070000Y-95430000D03*
X145070000Y-96700000D03*
X145070000Y-97970000D03*
%TD*%
D27*
%TO.C,C26*%
X128200000Y-68450000D03*
X128200000Y-70000000D03*
%TD*%
D25*
%TO.C,C9*%
X146645000Y-99525000D03*
X145095000Y-99525000D03*
%TD*%
D19*
%TO.C,D-*%
X102900000Y-103800000D03*
%TD*%
D64*
%TO.C,F1*%
X176000000Y-60065000D03*
X176000000Y-66435000D03*
%TD*%
D37*
%TO.C,J4*%
X101250000Y-93710000D03*
D38*
X101250000Y-96250000D03*
D40*
X101250000Y-98790000D03*
%TD*%
D27*
%TO.C,R12*%
X171862500Y-94905000D03*
X171862500Y-96455000D03*
%TD*%
D25*
%TO.C,R30*%
X107310787Y-92000000D03*
X105760787Y-92000000D03*
%TD*%
D29*
%TO.C,R38*%
X154690000Y-104085000D03*
X154690000Y-102535000D03*
%TD*%
D37*
%TO.C,J7*%
X109850000Y-88040000D03*
D38*
X109850000Y-85500000D03*
X109850000Y-82960000D03*
X109850000Y-80420000D03*
X109850000Y-77880000D03*
%TD*%
D25*
%TO.C,C1*%
X111775000Y-56750000D03*
X110225000Y-56750000D03*
%TD*%
D29*
%TO.C,R39*%
X154740000Y-114435000D03*
X154740000Y-112885000D03*
%TD*%
D24*
%TO.C,Q10*%
X131662500Y-66600000D03*
X131662500Y-68500000D03*
X133937500Y-67550000D03*
%TD*%
D25*
%TO.C,R2*%
X148738400Y-124150000D03*
X147188400Y-124150000D03*
%TD*%
D27*
%TO.C,R14*%
X167362500Y-94905000D03*
X167362500Y-96455000D03*
%TD*%
D29*
%TO.C,R29*%
X146590000Y-87340000D03*
X146590000Y-85790000D03*
%TD*%
D26*
%TO.C,J5*%
X184750000Y-65500000D03*
X184750000Y-60500000D03*
%TD*%
D29*
%TO.C,R18*%
X146590000Y-80340000D03*
X146590000Y-78790000D03*
%TD*%
%TO.C,R22*%
X159250000Y-68025000D03*
X159250000Y-66475000D03*
%TD*%
D65*
%TO.C,D6*%
X117950000Y-61300000D03*
X122000000Y-61300000D03*
%TD*%
D56*
%TO.C,REF\u002A\u002A*%
X184100000Y-121250000D03*
X184802944Y-119552944D03*
X184802944Y-122947056D03*
X186500000Y-118850000D03*
D57*
X186500000Y-121250000D03*
D56*
X186500000Y-123650000D03*
X188197056Y-119552944D03*
X188197056Y-122947056D03*
X188900000Y-121250000D03*
%TD*%
D66*
%TO.C,D2*%
X169305000Y-50250000D03*
D67*
X169305000Y-52790000D03*
X169305000Y-55330000D03*
%TD*%
D68*
%TO.C,J8*%
X127800000Y-139850000D03*
X135800000Y-139850000D03*
D69*
X134980000Y-128625000D03*
X133880000Y-128625000D03*
X132780000Y-128625000D03*
X131680000Y-128625000D03*
X130580000Y-128625000D03*
X129480000Y-128625000D03*
X128380000Y-128625000D03*
X127280000Y-128625000D03*
X126180000Y-128625000D03*
D70*
X124800000Y-130250000D03*
X124800000Y-139430000D03*
X139900000Y-130175000D03*
X140875000Y-139425000D03*
%TD*%
D28*
%TO.C,R59*%
X121825000Y-108100000D03*
X123375000Y-108100000D03*
%TD*%
D25*
%TO.C,C11*%
X146695000Y-113000000D03*
X145145000Y-113000000D03*
%TD*%
D27*
%TO.C,R44*%
X136590000Y-111513107D03*
X136590000Y-113063107D03*
%TD*%
D28*
%TO.C,C4*%
X108875000Y-70900000D03*
X110425000Y-70900000D03*
%TD*%
D25*
%TO.C,C19*%
X119875000Y-90650000D03*
X118325000Y-90650000D03*
%TD*%
D71*
%TO.C,F2*%
X105862500Y-53500000D03*
X110137500Y-53500000D03*
%TD*%
D28*
%TO.C,C18*%
X150638400Y-125650000D03*
X152188400Y-125650000D03*
%TD*%
D27*
%TO.C,R21*%
X160750000Y-66475000D03*
X160750000Y-68025000D03*
%TD*%
D25*
%TO.C,LE9*%
X105675000Y-100000000D03*
X107225000Y-100000000D03*
%TD*%
D31*
%TO.C,SW3*%
X160400000Y-136812500D03*
X160400000Y-132162500D03*
X162550000Y-136812500D03*
X162550000Y-132162500D03*
%TD*%
D29*
%TO.C,R6*%
X170500000Y-64025000D03*
X170500000Y-62475000D03*
%TD*%
D27*
%TO.C,C15*%
X164240000Y-128525000D03*
X164240000Y-130075000D03*
%TD*%
M02*
