M48
; DRILL file {KiCad 7.0.1} date Fri Apr 14 22:17:53 2023
; FORMAT={-:-/ absolute / metric / decimal}
; #@! TF.CreationDate,2023-04-14T22:17:53+07:00
; #@! TF.GenerationSoftware,Kicad,Pcbnew,7.0.1
; #@! TF.FileFunction,Plated,1,2,PTH
FMAT,2
METRIC
; #@! TA.AperFunction,Plated,PTH,ViaDrill
T1C0.200
; #@! TA.AperFunction,Plated,PTH,ViaDrill
T2C0.300
; #@! TA.AperFunction,Plated,PTH,ViaDrill
T3C0.400
; #@! TA.AperFunction,Plated,PTH,ComponentDrill
T4C0.500
; #@! TA.AperFunction,Plated,PTH,ComponentDrill
T5C0.762
; #@! TA.AperFunction,Plated,PTH,ComponentDrill
T6C0.800
; #@! TA.AperFunction,Plated,PTH,ComponentDrill
T7C1.000
; #@! TA.AperFunction,Plated,PTH,ComponentDrill
T8C1.100
; #@! TA.AperFunction,Plated,PTH,ComponentDrill
T9C1.200
; #@! TA.AperFunction,Plated,PTH,ComponentDrill
T10C1.500
; #@! TA.AperFunction,Plated,PTH,ComponentDrill
T11C3.200
%
G90
G05
T1
X101.0Y-127.0
X101.0Y-128.0
X101.0Y-129.0
X102.0Y-127.0
X102.0Y-128.0
X102.0Y-129.0
X103.0Y-127.0
X103.0Y-128.0
X103.0Y-129.0
X108.84Y-62.0
X108.84Y-65.6
X109.125Y-133.725
X109.43Y-48.76
X111.325Y-133.35
X111.748Y-111.568
X111.788Y-110.97
X111.925Y-136.275
X113.75Y-117.0
X113.774Y-114.5
X116.9Y-113.46
X117.05Y-109.8
X117.055Y-82.25
X117.078Y-97.4
X117.46Y-112.99
X117.53Y-112.0
X117.85Y-82.25
X117.85Y-98.1
X117.85Y-109.8
X119.85Y-112.5
X120.0Y-110.5
X120.159Y-64.5
X120.25Y-134.4
X120.25Y-135.7
X122.25Y-135.05
X122.25Y-136.15
X122.288Y-134.062
X123.5Y-100.3
X127.5Y-111.0
X127.5Y-115.5
X128.0Y-111.0
X128.0Y-115.5
X128.5Y-111.0
X128.5Y-115.5
X129.0Y-111.0
X129.0Y-115.5
X129.5Y-111.0
X129.5Y-115.5
X130.0Y-111.0
X130.0Y-115.5
X130.5Y-111.0
X130.5Y-115.5
X131.0Y-111.0
X131.0Y-111.5
X131.0Y-112.0
X131.0Y-112.5
X131.0Y-113.0
X131.0Y-113.5
X131.0Y-114.0
X131.0Y-114.5
X131.0Y-115.0
X131.0Y-115.5
X143.75Y-97.6
X143.9Y-123.2
X145.12Y-108.4
X145.45Y-127.78
X145.84Y-80.365
X145.84Y-83.815
X145.84Y-87.315
X146.2Y-95.45
X146.2Y-102.5
X146.8Y-94.2
X146.8Y-107.6
X147.374Y-106.365
X147.4Y-92.9
X147.975Y-105.095
X148.0Y-91.65
X148.75Y-123.2
X148.875Y-103.825
X149.4Y-105.095
X149.94Y-106.365
X150.65Y-123.2
X162.552Y-127.087
X164.25Y-126.125
X164.25Y-136.15
X164.25Y-142.4
T2
X106.1Y-113.125
X106.125Y-108.35
X108.05Y-92.0
X108.05Y-101.5
X109.35Y-52.0
X109.35Y-53.0
X109.35Y-54.0
X110.75Y-73.6
X112.5Y-109.0
X112.5Y-117.55
X114.75Y-109.99
X117.3Y-73.525
X119.5Y-66.1
X119.5Y-67.1
X119.5Y-68.0
X119.8Y-111.59
X120.5Y-66.1
X120.5Y-67.1
X120.5Y-68.0
X121.5Y-66.1
X121.5Y-67.1
X121.5Y-68.0
X122.48Y-109.91
X122.5Y-66.1
X122.5Y-67.1
X122.5Y-68.0
X123.5Y-66.1
X123.5Y-67.1
X123.5Y-68.0
X124.6Y-73.525
X125.2Y-64.2
X125.2Y-69.5
X133.36Y-110.75
X133.36Y-120.81
X133.36Y-121.5
X133.39Y-111.475
X143.4Y-99.525
X143.4Y-113.0
X148.4Y-72.55
X149.56Y-66.03
X157.49Y-103.31
X157.49Y-106.66
X157.49Y-110.11
X157.49Y-113.66
X165.46Y-138.93
T3
X124.4Y-111.375
X181.2Y-140.05
X183.2Y-140.05
T4
X99.1Y-72.75
X99.1Y-121.25
X99.803Y-71.053
X99.803Y-74.447
X99.803Y-119.553
X99.803Y-122.947
X101.5Y-70.35
X101.5Y-75.15
X101.5Y-118.85
X101.5Y-123.65
X103.197Y-71.053
X103.197Y-74.447
X103.197Y-119.553
X103.197Y-122.947
X103.9Y-72.75
X103.9Y-121.25
X184.1Y-72.75
X184.1Y-121.25
X184.803Y-71.053
X184.803Y-74.447
X184.803Y-119.553
X184.803Y-122.947
X186.5Y-70.35
X186.5Y-75.15
X186.5Y-118.85
X186.5Y-123.65
X188.197Y-71.053
X188.197Y-74.447
X188.197Y-119.553
X188.197Y-122.947
X188.9Y-72.75
X188.9Y-121.25
T5
X100.51Y-57.93
X100.51Y-60.47
X100.51Y-63.01
X100.51Y-65.55
X101.25Y-88.04
X165.282Y-83.36
X165.282Y-98.6
X167.822Y-83.36
X167.822Y-98.6
X169.32Y-103.4
X169.32Y-113.56
X170.362Y-83.36
X170.362Y-98.6
X171.86Y-103.4
X171.86Y-113.56
X172.903Y-83.36
X172.903Y-98.6
X174.4Y-103.4
X174.4Y-113.56
X175.442Y-83.36
X175.442Y-98.6
X176.94Y-103.4
X176.94Y-113.56
X177.982Y-83.36
X177.982Y-98.6
X179.48Y-103.4
X179.48Y-113.56
X182.02Y-103.4
X182.02Y-113.56
T6
X148.44Y-50.34
X148.44Y-52.88
X148.44Y-55.42
X156.06Y-50.34
X156.06Y-52.88
X156.06Y-55.42
T7
X100.36Y-103.8
X100.51Y-50.31
X100.51Y-52.85
X100.51Y-55.39
X101.25Y-80.42
X101.25Y-82.96
X101.25Y-85.5
X101.25Y-93.71
X101.25Y-96.25
X101.25Y-98.79
X102.9Y-103.8
X109.85Y-77.88
X109.85Y-80.42
X109.85Y-82.96
X109.85Y-85.5
X109.85Y-88.04
X120.3Y-137.81
X120.3Y-140.35
X120.3Y-142.89
X129.9Y-96.6
X137.5Y-96.6
X147.188Y-128.132
X147.188Y-142.632
X149.688Y-128.132
X152.188Y-128.132
X152.188Y-142.632
X168.15Y-120.0
X170.69Y-120.0
X173.23Y-120.0
X175.77Y-120.0
X178.31Y-120.0
X180.85Y-120.0
T8
X169.305Y-50.25
X169.305Y-52.79
X169.305Y-55.33
T9
X184.75Y-50.25
X184.75Y-55.25
X184.75Y-60.5
X184.75Y-65.5
T11
X101.5Y-72.75
X101.5Y-121.25
X186.5Y-72.75
X186.5Y-121.25
T4
X100.125Y-106.43G85X99.725Y-106.43
G05
X100.125Y-115.07G85X99.725Y-115.07
G05
X104.355Y-106.43G85X103.855Y-106.43
G05
X104.355Y-115.07G85X103.855Y-115.07
G05
T6
X129.45Y-56.95G85X129.45Y-59.15
G05
X135.35Y-55.25G85X133.15Y-55.25
G05
X135.55Y-61.05G85X132.95Y-61.05
G05
T10
X144.088Y-134.982G85X144.088Y-136.282
G05
X155.288Y-134.982G85X155.288Y-136.282
G05
T0
M30
