%TF.GenerationSoftware,KiCad,Pcbnew,7.0.1*%
%TF.CreationDate,2023-04-14T22:18:01+07:00*%
%TF.ProjectId,DO_AN_DKTD,444f5f41-4e5f-4444-9b54-442e6b696361,rev?*%
%TF.SameCoordinates,Original*%
%TF.FileFunction,Soldermask,Bot*%
%TF.FilePolarity,Negative*%
%FSLAX46Y46*%
G04 Gerber Fmt 4.6, Leading zero omitted, Abs format (unit mm)*
G04 Created by KiCad (PCBNEW 7.0.1) date 2023-04-14 22:18:01*
%MOMM*%
%LPD*%
G01*
G04 APERTURE LIST*
%ADD10C,2.000000*%
%ADD11O,3.500000X2.200000*%
%ADD12R,2.000000X2.000000*%
%ADD13R,2.000000X3.200000*%
%ADD14R,1.700000X1.700000*%
%ADD15O,1.700000X1.700000*%
%ADD16C,1.700000*%
%ADD17C,1.524000*%
%ADD18C,0.650000*%
%ADD19O,2.100000X1.000000*%
%ADD20O,1.600000X1.000000*%
%ADD21O,2.616000X1.308000*%
%ADD22C,1.000000*%
%ADD23C,1.244600*%
%ADD24C,0.800000*%
%ADD25C,6.400000*%
%ADD26R,4.400000X1.800000*%
%ADD27O,4.000000X1.800000*%
%ADD28O,1.800000X4.000000*%
%ADD29R,2.000000X1.905000*%
%ADD30O,2.000000X1.905000*%
%ADD31C,0.950000*%
G04 APERTURE END LIST*
D10*
%TO.C,MI*%
X120300000Y-142890000D03*
%TD*%
D11*
%TO.C,J2*%
X184750000Y-55250000D03*
X184750000Y-50250000D03*
%TD*%
D12*
%TO.C,SW1*%
X152188400Y-128131600D03*
D10*
X147188400Y-128131600D03*
X149688400Y-128131600D03*
D13*
X155288400Y-135631600D03*
X144088400Y-135631600D03*
D10*
X147188400Y-142631600D03*
X152188400Y-142631600D03*
%TD*%
%TO.C,MO*%
X120300000Y-137810000D03*
%TD*%
D12*
%TO.C,BZ1*%
X137500000Y-96600000D03*
D10*
X129900000Y-96600000D03*
%TD*%
D14*
%TO.C,J6*%
X180850000Y-120000000D03*
D15*
X178310000Y-120000000D03*
X175770000Y-120000000D03*
X173230000Y-120000000D03*
X170690000Y-120000000D03*
X168150000Y-120000000D03*
%TD*%
D14*
%TO.C,J1*%
X100510000Y-50310000D03*
D15*
X100510000Y-52850000D03*
D16*
X100510000Y-55390000D03*
D17*
X100510000Y-57930000D03*
X100510000Y-60470000D03*
X100510000Y-63010000D03*
X100510000Y-65550000D03*
%TD*%
D18*
%TO.C,J9*%
X103425000Y-107860000D03*
X103425000Y-113640000D03*
D19*
X104105000Y-106430000D03*
D20*
X99925000Y-106430000D03*
D19*
X104105000Y-115070000D03*
D20*
X99925000Y-115070000D03*
%TD*%
D21*
%TO.C,U4*%
X148440000Y-50340000D03*
X148440000Y-52880000D03*
X148440000Y-55420000D03*
X156060000Y-55420000D03*
X156060000Y-52880000D03*
X156060000Y-50340000D03*
%TD*%
D22*
%TO.C,BT1*%
X136960000Y-83796500D03*
D23*
X136960000Y-76303500D03*
%TD*%
D10*
%TO.C,D+*%
X100360000Y-103800000D03*
%TD*%
D14*
%TO.C,J3*%
X101250000Y-80420000D03*
D15*
X101250000Y-82960000D03*
D16*
X101250000Y-85500000D03*
D17*
X101250000Y-88040000D03*
%TD*%
D24*
%TO.C,REF\u002A\u002A*%
X99100000Y-72750000D03*
X99802944Y-71052944D03*
X99802944Y-74447056D03*
X101500000Y-70350000D03*
D25*
X101500000Y-72750000D03*
D24*
X101500000Y-75150000D03*
X103197056Y-71052944D03*
X103197056Y-74447056D03*
X103900000Y-72750000D03*
%TD*%
D17*
%TO.C,LE2*%
X169320000Y-113560000D03*
X171860000Y-113560000D03*
X174400000Y-113560000D03*
X176940000Y-113560000D03*
X179480000Y-113560000D03*
X182020000Y-113560000D03*
X182020000Y-103400000D03*
X179480000Y-103400000D03*
X176940000Y-103400000D03*
X174400000Y-103400000D03*
X171860000Y-103400000D03*
X169320000Y-103400000D03*
%TD*%
%TO.C,LE1*%
X165282500Y-98600000D03*
X167822500Y-98600000D03*
X170362500Y-98600000D03*
X172902500Y-98600000D03*
X175442500Y-98600000D03*
X177982500Y-98600000D03*
X177982500Y-83360000D03*
X175442500Y-83360000D03*
X172902500Y-83360000D03*
X170362500Y-83360000D03*
X167822500Y-83360000D03*
X165282500Y-83360000D03*
%TD*%
D24*
%TO.C,REF\u002A\u002A*%
X99100000Y-121250000D03*
X99802944Y-119552944D03*
X99802944Y-122947056D03*
X101500000Y-118850000D03*
D25*
X101500000Y-121250000D03*
D24*
X101500000Y-123650000D03*
X103197056Y-119552944D03*
X103197056Y-122947056D03*
X103900000Y-121250000D03*
%TD*%
%TO.C,REF\u002A\u002A*%
X184100000Y-72750000D03*
X184802944Y-71052944D03*
X184802944Y-74447056D03*
X186500000Y-70350000D03*
D25*
X186500000Y-72750000D03*
D24*
X186500000Y-75150000D03*
X188197056Y-71052944D03*
X188197056Y-74447056D03*
X188900000Y-72750000D03*
%TD*%
D10*
%TO.C,SCK*%
X120300000Y-140350000D03*
%TD*%
D26*
%TO.C,J10*%
X134250000Y-61050000D03*
D27*
X134250000Y-55250000D03*
D28*
X129450000Y-58050000D03*
%TD*%
D10*
%TO.C,D-*%
X102900000Y-103800000D03*
%TD*%
D14*
%TO.C,J4*%
X101250000Y-93710000D03*
D15*
X101250000Y-96250000D03*
D16*
X101250000Y-98790000D03*
%TD*%
D14*
%TO.C,J7*%
X109850000Y-88040000D03*
D15*
X109850000Y-85500000D03*
X109850000Y-82960000D03*
X109850000Y-80420000D03*
X109850000Y-77880000D03*
%TD*%
D11*
%TO.C,J5*%
X184750000Y-65500000D03*
X184750000Y-60500000D03*
%TD*%
D24*
%TO.C,REF\u002A\u002A*%
X184100000Y-121250000D03*
X184802944Y-119552944D03*
X184802944Y-122947056D03*
X186500000Y-118850000D03*
D25*
X186500000Y-121250000D03*
D24*
X186500000Y-123650000D03*
X188197056Y-119552944D03*
X188197056Y-122947056D03*
X188900000Y-121250000D03*
%TD*%
D29*
%TO.C,D2*%
X169305000Y-50250000D03*
D30*
X169305000Y-52790000D03*
X169305000Y-55330000D03*
%TD*%
D31*
%TO.C,J8*%
X127800000Y-139850000D03*
X135800000Y-139850000D03*
%TD*%
M02*
